<?xml version="1.0" standalone="no"?>
<!DOCTYPE svg PUBLIC "-//W3C//DTD SVG 1.1//EN" "http://www.w3.org/Graphics/SVG/1.1/DTD/svg11.dtd" >
<svg xmlns="http://www.w3.org/2000/svg">
<metadata></metadata>
<defs>
<font id="palace_script_mtregular" horiz-adv-x="406" >
<font-face units-per-em="2048" ascent="1638" descent="-410" />
<missing-glyph horiz-adv-x="320" />
<glyph horiz-adv-x="2048" />
<glyph horiz-adv-x="2048" />
<glyph unicode="&#xd;" horiz-adv-x="2048" />
<glyph unicode=" "  horiz-adv-x="320" />
<glyph unicode="&#x09;" horiz-adv-x="320" />
<glyph unicode="&#xa0;" horiz-adv-x="320" />
<glyph unicode="!" horiz-adv-x="330" d="M-86 51q0 13 13 27t26 14q14 0 14 -16q0 -11 -11 -25t-26 -14q-16 0 -16 14zM-14 135q157 177 368 438q48 61 70 90t33 38.5t28 9.5q21 0 21 -25q0 -15 -23 -42.5t-88 -92.5q-23 -24 -80 -82.5t-112 -118.5l-197 -215h-20z" />
<glyph unicode="&#x22;" horiz-adv-x="426" d="M184 389l15 178q6 87 18 130.5t47 43.5q33 0 33 -43q0 -28 -35 -131l-59 -178h-19zM354 389l13 178q6 87 18 130.5t47 43.5t35 -43q0 -17 -4.5 -31.5t-32.5 -99.5l-57 -178h-19z" />
<glyph unicode="#" horiz-adv-x="874" d="M84 152v43h141l54 251h-195v43h205l53 252h43l-53 -252h282l54 252h43l-52 -252h132v-43h-142l-53 -251h195v-43h-203l-51 -252h-45l51 252h-283l-51 -252h-45l53 252h-133zM270 195h283l51 251h-280z" />
<glyph unicode="$" horiz-adv-x="641" d="M-53 -37l65 78q-20 33 -18 80q2 29 15 56.5t37.5 46t53.5 18.5q19 0 38 -8.5t26 -16.5l137 162q-8 100 26.5 166.5t92 94t117.5 17.5l77 93l11 -11l-70 -86q36 -7 80 -51l78 88l10 -10l-76 -88q-4 0 2 -6q19 -23 19 -72q0 -47 -31.5 -77.5t-67.5 -30.5q-25 0 -59 22 l-123 -147q19 -186 -58 -244.5t-196 -52.5l-90 -105l-10 12l80 95q-59 14 -88 45l-68 -80zM8 121q0 -46 17 -66l88 103q-11 10 -11 22q0 28 33 39q-11 8 -39 8q-36 0 -62 -37.5t-26 -68.5zM35 45q29 -33 90 -47l203 238q-17 83 -21 126l-135 -157q2 -8 2 -19 q0 -16 -15.5 -30.5t-35.5 -10.5zM145 -2q46 -3 84.5 11.5t64.5 43.5t36.5 71.5t3.5 92.5zM358 446l164 193q-82 0 -123 -48.5t-41 -144.5zM365 428l18 -127l117 139q-2 7 -2.5 11t-1.5 8q2 19 16 32.5t37 10.5l76 86q-36 38 -86 47zM537 428q16 -8 28 -8q23 0 43 12.5 t32.5 35.5t12.5 46q0 36 -18 61l-74 -83q13 -18 8 -37.5t-32 -26.5z" />
<glyph unicode="%" horiz-adv-x="768" d="M-4 98l842 568q-38 -11 -80 -11q-84 0 -135 37q0 -48 -30.5 -99t-80.5 -92.5t-102.5 -65t-98.5 -23.5q-30 0 -48.5 21.5t-18.5 55.5q0 49 35.5 97t88 83.5t104 54.5t87.5 19q32 0 68 -32q55 -41 131 -41q32 0 114 20l9 -12l-877 -592zM201 61q0 65 56 123.5t131.5 93.5 t127.5 35q32 0 50 -14t18 -39q0 -63 -56 -127.5t-132.5 -106.5t-129.5 -42q-30 0 -47.5 20.5t-17.5 56.5zM233 29q0 -12 13 -21.5t28 -9.5q40 0 110.5 45t125.5 106.5t55 110.5q0 19 -11 29t-30 10q-35 0 -104.5 -53.5t-128 -120t-58.5 -96.5zM279 455q0 -29 38 -29 q43 0 114 44.5t124 106t53 107.5q0 20 -11.5 32.5t-29.5 12.5q-60 0 -178 -121q-57 -59 -83.5 -95t-26.5 -58z" />
<glyph unicode="&#x26;" horiz-adv-x="662" d="M-346 -262q0 50 32 88t89 55.5t129 7.5l-4 -14q-46 4 -52 4q-48 0 -90 -20t-66 -52.5t-24 -70.5q0 -45 42.5 -71.5t99.5 -26.5q84 0 159.5 37t167.5 120q85 77 108 156.5t17 161.5q-49 -35 -82.5 -53t-61 -25.5t-59.5 -7.5q-47 0 -77.5 24.5t-30.5 63.5q0 62 58 110 t194 90l45 15q6 77 54.5 135.5t107.5 58.5q26 0 43.5 -16.5t17.5 -42.5q0 -98 -209 -152q6 -56 8.5 -97.5t5.5 -68.5q60 60 84 89q25 30 49 55t54.5 44t60.5 19q26 0 42 -12t16 -33q0 -28 -27 -28q-31 0 -31 30q0 21 4 29q-44 0 -80 -32.5t-69 -74.5q-16 -20 -42.5 -46.5 l-57.5 -57.5q5 -103 -12 -191.5t-97 -162.5q-49 -46 -111.5 -80.5t-128 -53t-125.5 -18.5q-72 0 -111.5 31t-39.5 84zM8 88q0 -47 51 -47q84 0 201 90q-12 98 -12 178q-121 -38 -180.5 -108t-59.5 -113zM264 330q100 30 146.5 59t46.5 74q0 14 -6 24.5t-16.5 16.5t-24.5 6 q-54 0 -96.5 -51.5t-49.5 -128.5z" />
<glyph unicode="'" horiz-adv-x="256" d="M184 389l13 178q6 88 21 131t46 43q33 0 33 -45q0 -16 -8 -44t-27 -85l-59 -178h-19z" />
<glyph unicode="(" horiz-adv-x="555" d="M63 -250q46 387 233 680.5t450 468.5t538 231l2 -14q-179 -42 -374 -161t-370 -301.5t-299.5 -416t-162.5 -487.5h-17z" />
<glyph unicode=")" horiz-adv-x="555" d="M-489 -236q179 43 372 161t371 303t301 416t162 486h16q-34 -293 -152 -533.5t-290.5 -414.5t-374.5 -282t-403 -150z" />
<glyph unicode="*" d="M283 670q12 11 43.5 26t103.5 47q-49 29 -137 50l10 53q65 -28 135 -88q6 66 -22 141l51 19q4 -13 4 -37q0 -32 -14 -125q58 28 110 92l47 -35q-39 -24 -147 -74q63 -39 135 -47l-10 -59q-46 21 -137 90q-8 -43 26 -139l-57 -23q0 89 14 166q-26 -14 -44.5 -30t-65.5 -64 z" />
<glyph unicode="+" horiz-adv-x="874" d="M117 299v43h299v299h43v-299h299v-43h-299v-299h-43v299h-299z" />
<glyph unicode="," horiz-adv-x="338" d="M-82 -33q42 21 64 41t35 42.5t14 23.5q18 18 35 18q18 0 18 -20q0 -25 -39.5 -50.5t-120.5 -64.5z" />
<glyph unicode="-" horiz-adv-x="362" d="M74 207l12 14h186l-12 -14h-186z" />
<glyph unicode="." horiz-adv-x="330" d="M14 59q0 13 11 25t24 12q23 0 23 -22q0 -13 -11 -25t-24 -12q-23 0 -23 22z" />
<glyph unicode="/" horiz-adv-x="319" d="M-457 -165l1223 1067l39 -5l-1225 -1067z" />
<glyph unicode="0" horiz-adv-x="641" d="M-20 90q0 95 59.5 195t156.5 185.5t200 136t179 50.5q33 0 51.5 -19.5t18.5 -53.5q0 -82 -105 -227.5t-245 -259t-236 -113.5q-79 0 -79 106zM4 53q0 -23 16 -39t39 -16q67 0 163.5 66t188.5 163.5t154 197.5t62 161q0 28 -13.5 42.5t-38.5 14.5q-73 0 -170.5 -66.5 t-189 -166t-151.5 -200t-60 -157.5z" />
<glyph unicode="1" horiz-adv-x="641" d="M59 -6l605 596q-303 -175 -568 -291l-6 16q67 30 166 78t186.5 94t165 91.5t125.5 78.5h15l-590 -663h-99z" />
<glyph unicode="2" horiz-adv-x="641" d="M-127 -16q69 71 268 184q178 100 254 162q70 58 125 132.5t55 129.5q0 53 -59 53t-136.5 -50.5t-133.5 -118.5t-56 -111q0 -33 41 -33q46 0 122.5 60t138.5 192h12q-52 -125 -133.5 -196t-145.5 -71q-20 0 -35.5 13.5t-15.5 34.5q0 70 55.5 138t136 111t150.5 43 q44 0 67 -26t23 -74q0 -90 -50 -156.5t-129.5 -112.5t-199.5 -100q-101 -44 -145 -67t-94 -64q56 17 98 19q61 -3 117 -29q25 -11 42.5 -16.5t35.5 -5.5q25 0 53 20.5t65 69.5l13 -9q-48 -64 -93 -93t-96 -29q-26 0 -88 26q-71 31 -119 31q-55 0 -125 -57h-18z" />
<glyph unicode="3" horiz-adv-x="641" d="M-119 72q0 25 14 41t37 16q37 0 37 -31q0 -15 -10 -27t-22 -12q-29 0 -35 27q-4 -6 -4 -18q2 -28 34 -49.5t76 -20.5q96 3 196.5 60t169 130.5t68.5 112.5q0 17 -13.5 27t-29.5 10q-48 0 -149 -45l-2 12q101 41 168 76.5t114 75.5q105 85 105 143q0 19 -15 31t-34 12 q-73 0 -137 -33t-102 -76.5t-38 -68.5q0 -10 11.5 -17.5t25.5 -7.5q52 0 112.5 43t96.5 107h14q-38 -69 -103.5 -116.5t-123.5 -47.5q-47 0 -47 47q0 42 41 85.5t105 71t126 27.5q101 0 101 -88q0 -56 -52.5 -103.5t-191.5 -100.5l-33 -13q90 0 90 -86q0 -66 -65 -132.5 t-173 -108t-231 -41.5q-61 0 -96 22t-35 66z" />
<glyph unicode="4" horiz-adv-x="641" d="M-23 170l515 475h120q-96 -66 -209 -150t-212.5 -163.5t-174.5 -145.5q81 17 142 17q80 0 182 -13q74 66 166 156l22 23l11 -11l-154 -172q68 -10 168 27l-2 -16q-97 -36 -180 -27l-158 -176h-107q39 31 211 182q-81 12 -165 12q-47 0 -81.5 -7t-86.5 -21z" />
<glyph unicode="5" horiz-adv-x="641" d="M-109 55q0 32 19 55t45 23q35 0 35 -35q0 -16 -11.5 -25.5t-27.5 -9.5q-21 0 -37 23q-8 -19 -8 -31q0 -57 94 -57q70 0 147.5 42.5t146.5 107.5t112 132.5t43 112.5q0 25 -13.5 40.5t-36.5 15.5q-66 0 -127.5 -33.5t-115.5 -87.5h-19l295 327q14 -4 31 -12 q59 -25 108 -25q41 0 75.5 12t80.5 42l6 -8q-51 -39 -100 -55.5t-107 -16.5q-45 0 -118 16l-181 -200q50 27 89 41t77 14q47 0 67.5 -30t20.5 -97q0 -96 -88 -177.5t-206 -128t-187 -46.5q-55 0 -82 21.5t-27 49.5z" />
<glyph unicode="6" horiz-adv-x="641" d="M6 61q0 76 62.5 178.5t162 198t211 157.5t203.5 62q33 0 55.5 -14.5t22.5 -46.5q0 -55 -43 -55q-12 0 -21.5 11.5t-9.5 22.5q0 17 10 27t25 10q12 0 21 -6q0 37 -66 37q-54 0 -131.5 -44t-200.5 -167q-49 -49 -117 -145q70 59 120.5 85.5t101.5 26.5q67 0 67 -73 q0 -90 -62 -169t-153.5 -126t-171.5 -47q-86 0 -86 77zM29 45q0 -47 59 -47q62 0 150.5 65t154.5 148t66 127q0 20 -13.5 33.5t-33.5 13.5q-64 0 -153.5 -66t-159.5 -151.5t-70 -122.5z" />
<glyph unicode="7" horiz-adv-x="641" d="M-229 -238l841 801q-68 -24 -104 -24q-55 0 -111 22q-39 17 -73 17q-46 0 -117 -74h-23l193 207q6 6 14 6q6 0 6 -6q0 -9 -8 -17l-104 -106q9 2 28 10q41 16 84 16q47 0 113 -18q55 -14 80 -14q43 0 88 49q26 26 37 26q21 0 -21 -39q-44 -36 -171.5 -159t-182.5 -180 q-52 -55 -96 -103t-117 -129.5t-113 -130.5l-123 -154h-120z" />
<glyph unicode="8" horiz-adv-x="641" d="M-31 84q0 99 95.5 156.5t269.5 121.5q-23 42 -23 82q0 54 32.5 103t87 79.5t120.5 30.5q50 0 81.5 -27.5t31.5 -70.5q0 -70 -64 -110t-199 -84q27 -55 27 -103q0 -71 -45.5 -135t-122 -103.5t-158.5 -39.5q-63 0 -98 26t-35 74zM-2 88q0 -38 20 -64t88 -26q63 0 126 28.5 t104 76.5t41 102q0 57 -37 145q-135 -50 -191 -74.5t-103.5 -71.5t-47.5 -116zM356 496q0 -32 41 -119q156 47 202 91.5t46 92.5q0 37 -26 59.5t-70 22.5q-48 0 -92 -22.5t-72.5 -57t-28.5 -67.5z" />
<glyph unicode="9" horiz-adv-x="641" d="M-109 43q0 23 12 38t31 15q31 0 31 -30q0 -24 -14 -34t-35 -5q2 -13 18.5 -21t40.5 -8q85 0 172.5 63t153.5 136.5t135 158.5q-71 -59 -128 -86.5t-107 -27.5q-36 0 -51 17t-15 56q0 80 61 161t152.5 131t169.5 50q86 0 86 -86q0 -85 -65 -187.5t-166 -193t-211 -148.5 t-191 -58q-80 0 -80 59zM154 297q0 -41 51 -41q69 0 159.5 65.5t158 148t67.5 118.5q0 55 -64 55q-55 0 -144 -66.5t-158.5 -151t-69.5 -128.5z" />
<glyph unicode=":" horiz-adv-x="319" d="M14 59q0 13 11 25t24 12q23 0 23 -22q0 -13 -11 -25t-24 -12q-23 0 -23 22zM172 311q0 13 11 25t24 12q12 0 17 -6t5 -16q0 -14 -10.5 -25.5t-23.5 -11.5q-23 0 -23 22z" />
<glyph unicode=";" horiz-adv-x="319" d="M-82 -33q42 21 64 41t35 42.5t14 23.5q18 18 35 18q18 0 18 -20q0 -25 -39.5 -50.5t-120.5 -64.5zM172 311q0 13 11 25t24 12q12 0 17 -6t5 -16q0 -14 -10.5 -25.5t-23.5 -11.5q-23 0 -23 22z" />
<glyph unicode="&#x3c;" horiz-adv-x="874" d="M117 301v39l641 272v-47l-586 -243l586 -246v-47z" />
<glyph unicode="=" horiz-adv-x="874" d="M117 160v43h641v-43h-641zM117 160v43h641v-43h-641zM117 438v43h641v-43h-641zM117 438v43h641v-43h-641z" />
<glyph unicode="&#x3e;" horiz-adv-x="874" d="M117 29v47l585 243l-585 246v47l641 -272v-39z" />
<glyph unicode="?" horiz-adv-x="606" d="M25 51q0 13 15 29t28 16q14 0 14 -16q0 -11 -14 -27t-27 -16q-16 0 -16 14zM109 141q28 35 52.5 61t57 54.5t107.5 87.5q61 49 98 80.5t74.5 70t61.5 79.5t24 75q0 51 -68 51q-48 0 -100.5 -29t-88.5 -70.5t-36 -70.5q0 -13 10.5 -23.5t26.5 -10.5q43 0 100 39.5 t102 97.5l11 -6q-46 -63 -105.5 -104.5t-107.5 -41.5q-22 0 -37 13.5t-15 35.5q0 42 38 85.5t96.5 71.5t109.5 28q86 0 86 -99q0 -87 -47.5 -136.5t-146.5 -108.5q-114 -67 -170.5 -112t-116.5 -118h-16z" />
<glyph unicode="@" horiz-adv-x="831" d="M45 203q0 100 46.5 189t134.5 143.5t196 54.5q82 0 146 -33t100.5 -94.5t36.5 -145.5q0 -103 -60 -191.5t-158 -88.5q-63 0 -63 55q0 22 8 60q-39 -48 -77.5 -81.5t-80.5 -33.5q-34 0 -52.5 30t-18.5 64q0 53 33 118.5t83.5 112t102.5 46.5q55 0 67 -54l15 43l61 9 l-45 -158q-37 -126 -37 -152q0 -8 6.5 -18t22.5 -10q57 0 113.5 75t56.5 181q0 68 -33 124.5t-92 87.5t-133 31q-111 0 -188 -56.5t-114.5 -143t-37.5 -174.5q0 -89 39 -163t109.5 -115.5t162.5 -41.5q102 0 186 56.5t132 164.5h22q-27 -81 -82.5 -136.5t-124.5 -81.5 t-137 -26q-105 0 -184 46.5t-120.5 127t-41.5 179.5zM266 141q0 -21 13 -38t32 -17q35 0 74 38.5t64.5 96.5t25.5 111q0 23 -12.5 40t-36.5 17q-34 0 -71.5 -45t-63 -106t-25.5 -97z" />
<glyph unicode="A" horiz-adv-x="1406" d="M68 100q0 37 23 65t56 28q21 0 32 -11t11 -22q0 -31 -38 -31q-31 0 -37 33q-31 -26 -31 -66q0 -46 41 -72t117 -26q78 0 160.5 29t156.5 71t154 95q-78 86 -112 156t-34 157q0 92 48 161.5t143 69.5q105 0 176.5 -76.5t101.5 -199.5q201 177 324 280.5t232.5 184.5 t195 126t164.5 62l10 -8l-29 -27q-132 -124 -235.5 -231t-221 -239.5t-219 -258.5t-213.5 -276q47 0 110 29.5t127.5 78t117.5 101.5v-17q-60 -64 -165.5 -135.5t-197.5 -71.5l-41 -59h-92l53 70q-73 14 -121.5 39t-107.5 73q-87 -56 -161 -97.5t-157 -71t-165 -29.5 q-83 0 -129.5 31t-46.5 85zM582 522q0 -95 33 -166t112 -153q106 82 295 246q-19 104 -89 189t-173 85q-74 0 -113.5 -41.5t-52 -87.5t-12.5 -72zM739 193q61 -49 111 -74.5t117 -36.5q44 94 57 177q7 45 7 93q0 40 -5 82q-41 -38 -129 -112t-158 -129zM1001 127 q39 49 97 113t96 104.5t122.5 131t248.5 267.5l26 29q42 45 163.5 161.5t162.5 153.5q-78 -15 -202 -95t-250 -181.5t-234.5 -197.5t-188.5 -167q7 -51 7 -96q-1 -36 -5 -67q-10 -72 -43 -156z" />
<glyph unicode="B" horiz-adv-x="1473" d="M70 98q0 28 14 45t39 17q15 0 25 -11t10 -26q0 -13 -11 -22t-22 -9q-19 0 -31 17q-2 4 -6 4t-4 -19q0 -43 53.5 -69.5t151.5 -26.5q102 0 183 25.5t153.5 79.5t167.5 155q21 23 67 76.5t114.5 134t123 142.5t76.5 81l61 58q143 134 192 174t146 98q-108 94 -291 94 q-166 0 -311.5 -47t-253 -123t-168 -165.5t-60.5 -168.5q0 -57 30.5 -90t84.5 -33q71 0 167 49.5t183 128t143 171.5t56 182l16 -2q0 -89 -57.5 -186t-146.5 -178t-187 -131t-174 -50q-62 0 -96.5 36.5t-34.5 100.5q0 92 65 185t177 168.5t259 121t304 45.5q71 0 122.5 -9 t94.5 -28.5t94 -60.5q50 32 106 59t97 39l12 -16q-44 -13 -104 -43t-96 -53q32 -36 41.5 -70t9.5 -82q0 -64 -28.5 -117t-86.5 -99t-154 -89q22 -38 30.5 -69.5t8.5 -73.5q0 -77 -42 -155t-111 -140.5t-156 -100.5t-172 -38q-94 0 -94 79q0 58 47.5 124.5t126.5 120.5 t164 77l4 -14q-142 -49 -217 -121q-52 -49 -81.5 -99.5t-29.5 -91.5q0 -61 82 -61q86 0 166.5 54.5t142.5 138.5t96.5 166t34.5 135q0 33 -12 61q-46 -25 -102 -25q-41 0 -57.5 14.5t-16.5 39.5q0 23 16.5 40t47.5 17q59 0 114 -64q64 36 120 94.5t88 125.5t32 125 q0 61 -27 88q-104 -58 -218.5 -165.5t-246.5 -299.5q-68 -103 -117 -159t-124 -126q-81 -75 -159 -130t-147 -85.5t-137.5 -44.5t-144.5 -14q-225 0 -225 114zM1212 580q0 -37 52 -37h8q22 1 43 7.5t47 18.5q-43 56 -102 56q-20 0 -34 -13.5t-14 -31.5z" />
<glyph unicode="C" horiz-adv-x="938" d="M66 752q0 52 32 116t110.5 123.5t218.5 99t349 39.5v-14q-218 0 -361 -42.5t-213 -102t-96 -118.5t-26 -105q0 -93 74 -148q63 -47 192 -47q23 0 49 2q83 89 200 190.5t242.5 188.5t242.5 141.5t204 54.5q76 0 76 -71q0 -76 -122 -175.5t-320 -186.5t-420 -136 q-97 -107 -155 -185.5t-86 -140t-28 -112.5q0 -50 46.5 -87.5t121.5 -37.5q102 0 206 53.5t172.5 132.5t68.5 146q0 54 -31 81t-88 27q-76 0 -180.5 -68.5t-204.5 -254.5l-14 10q91 172 197 250t204 78q65 0 98 -33t33 -88q0 -57 -40.5 -118t-110.5 -114t-151 -84.5 t-155 -31.5q-99 0 -153.5 48.5t-54.5 143.5q0 85 42 167t148 200q-26 -2 -50 -2q-134 0 -195 53q-72 62 -72 158zM512 575q164 41 320 103t272 130.5t179 133t63 119.5t-62 55q-101 0 -238.5 -82t-275 -203.5t-258.5 -255.5z" />
<glyph unicode="D" horiz-adv-x="1386" d="M33 35q0 29 35.5 45t97.5 16q70 0 130.5 -14.5t145.5 -48.5q93 27 164 62.5t131 87.5t112.5 116.5t125.5 171.5q74 110 152.5 206t143 161t109.5 102q-52 92 -129 134t-194 42q-141 0 -268.5 -59t-220 -150.5t-144 -189.5t-51.5 -168q0 -58 34.5 -91.5t92.5 -33.5 q71 0 157.5 46.5t163 123.5t125.5 178t49 197h15q0 -103 -47 -202t-125 -181t-166.5 -129t-167.5 -47q-156 0 -156 161q0 103 58 204t160 182t228 127t257 46q126 0 206 -42.5t136 -139.5q41 36 95.5 68.5t106.5 52.5l9 -10q-98 -40 -205 -125q20 -51 25.5 -83t5.5 -79 q0 -102 -54 -237.5t-156.5 -262t-247 -207.5t-317.5 -81q-122 0 -213 32q-123 -32 -252 -32q-157 0 -157 51zM47 35q0 -37 123 -37q135 0 248 29q-83 29 -136 42t-114 13q-54 0 -87.5 -13t-33.5 -34zM469 25q103 -27 186 -27q167 0 309 80.5t242.5 205.5t154.5 259t54 233 q0 72 -29 148q-74 -56 -133.5 -137t-130.5 -209q-49 -89 -96 -160t-121 -147.5t-181 -141t-255 -104.5z" />
<glyph unicode="E" horiz-adv-x="885" d="M63 207q0 78 44 153.5t119 136t177 104.5t213 63l-4 30q-88 -12 -145 -12q-129 0 -205 47.5t-76 134.5q0 48 38 108t150 109t316 49v-14q-148 0 -248 -29t-150.5 -71.5t-68.5 -83.5t-18 -76q0 -59 61.5 -109.5t204.5 -50.5q44 0 139 15q2 72 21 120.5t67 104.5 q75 83 188 138.5t206 55.5q42 0 65 -17t23 -46q0 -47 -46 -106.5t-122.5 -114t-171 -94t-201.5 -54.5l-4 -32q20 2 39 2q44 0 74 -13q44 -19 43 -59q0 -27 -20.5 -41t-47.5 -14q-81 0 -105 110q-130 -24 -227.5 -89.5t-156 -144.5t-87 -153.5t-28.5 -120.5q0 -145 170 -145 q108 0 218.5 52t181.5 133.5t71 162.5q0 46 -31.5 72t-85.5 26q-68 0 -142 -35.5t-134 -99.5q-37 -37 -60 -75t-53 -107h-14q35 82 58.5 119.5t61.5 77.5q135 133 287 133q59 0 93 -29t34 -80q0 -90 -73 -174.5t-186.5 -137t-219.5 -52.5q-117 0 -174.5 59t-57.5 164z M637 653q7 -48 26.5 -73t63.5 -25q20 0 34.5 11.5t14.5 29.5q0 30 -37 46q-28 13 -73 12q-14 0 -29 -1zM641 717q137 21 258 84t193.5 137.5t72.5 126.5q0 24 -20 36.5t-58 12.5q-73 0 -164.5 -51t-168.5 -141.5t-113 -204.5z" />
<glyph unicode="F" horiz-adv-x="1130" d="M94 104q0 33 19.5 57.5t50.5 24.5q24 0 36.5 -12t12.5 -33q0 -39 -47 -39q-30 0 -39 43q-18 -22 -18 -41q0 -45 52 -75.5t136 -30.5q102 0 198.5 34.5t182.5 99.5t164.5 157.5t154.5 216.5q-179 -25 -278 -98l-10 8q106 84 299 106q146 214 233.5 317t214.5 183l10 -6 q-154 -132 -213 -209t-170 -279l62 9q30 69 60.5 105t68.5 36q47 0 47 -51q0 -42 -43.5 -67t-106.5 -36q-10 -60 -16 -133l-59 -22q27 113 43 151l-64 -8q-141 -270 -342.5 -399t-443.5 -129q-88 0 -141.5 29.5t-53.5 90.5zM561 700q0 65 48 138.5t141 137.5t222.5 103 t289.5 39q76 0 206 -20q125 -21 209 -21q98 0 187 49l8 -8q-118 -84 -258 -84q-65 0 -203 29q-86 17 -130.5 22t-90.5 5q-144 0 -261 -41t-195 -103t-118.5 -129t-40.5 -115q0 -114 150 -114q74 0 158 38t168.5 117t152.5 195l10 -4q-57 -104 -135.5 -187.5t-168 -128.5 t-187.5 -45q-162 0 -162 127zM1176 541q79 12 105 40t26 46q0 37 -35 37q-29 0 -51.5 -31.5t-44.5 -91.5z" />
<glyph unicode="G" horiz-adv-x="981" d="M82 768q0 71 45 137t123 116.5t181 79.5t218 29q60 0 115 -8l-2 -12q-58 6 -111 6q-112 0 -211 -28.5t-175.5 -79t-119.5 -116t-43 -136.5q0 -87 53.5 -131.5t113.5 -54.5t134 -13q18 24 44.5 61.5t59.5 72.5t70.5 69t92.5 74q132 96 227.5 156t197 100t195.5 40 q88 0 88 -59q0 -66 -83.5 -148t-216 -156t-288.5 -131t-296 -81q-54 -83 -75.5 -132t-21.5 -85q0 -39 33.5 -63.5t87.5 -24.5q83 0 164.5 38t165.5 98.5t182 131.5l8 -10q-74 -51 -109.5 -86.5t-92.5 -122.5q-67 -97 -122 -159.5t-151 -109t-229 -46.5q-102 0 -161.5 37.5 t-59.5 99.5q0 33 16.5 54.5t42.5 21.5q16 0 27.5 -9.5t11.5 -25.5q0 -12 -11.5 -21.5t-23.5 -9.5q-19 0 -37 31q-10 -21 -10 -43q0 -55 56 -88t147 -33q129 0 197 44.5t137 129.5q38 47 83 98t66 74q-75 -49 -146 -78.5t-151 -29.5q-77 0 -122.5 40t-45.5 107q0 68 47 162 h-10q-193 0 -249 76.5t-56 146.5zM502 569q177 30 380 117.5t342.5 194.5t139.5 188q0 47 -74 47q-84 0 -186 -42.5t-209.5 -121t-207.5 -176.5t-185 -207z" />
<glyph unicode="H" horiz-adv-x="1386" d="M84 59q0 78 96.5 177.5t269.5 184t386 118.5l32 41q98 121 143.5 171t184.5 189q-74 -27 -117 -27q-82 0 -82 66q0 2 5.5 36.5t5.5 35.5q0 65 -125 65q-132 0 -217 -43.5t-122.5 -101.5t-37.5 -103q0 -49 34 -77.5t97 -28.5q69 0 133 27.5t137 87.5l13 -7 q-77 -64 -143.5 -93t-137.5 -29q-147 0 -147 120q0 38 22 82.5t69 86.5t120.5 67.5t177.5 25.5q79 0 126.5 -28.5t47.5 -75.5q0 -9 -5.5 -43.5t-5.5 -30.5q0 -26 46 -26q54 0 109 31t132 102q65 59 82 59q10 0 10 -6q0 -11 -20 -22q-39 -27 -150 -119q-144 -119 -311 -412 l232 51l106 107l57 55q163 154 316.5 256t253.5 102q34 0 53.5 -15t19.5 -42q0 -83 -104 -173.5t-267 -164.5t-337 -114q-62 -76 -133 -169t-122.5 -168t-81.5 -134t-30 -97q0 -22 16.5 -38.5t36.5 -16.5q43 0 94.5 24t112 67.5t118 92.5t118.5 101v-17q-76 -66 -126 -109 t-106 -84.5t-108 -65t-96 -23.5q-42 0 -66.5 27t-24.5 69q0 201 283 512l-225 -49q-6 -17 -51.5 -74t-118 -132t-172.5 -155q-79 -64 -193.5 -131t-222.5 -67q-54 0 -72 20.5t-18 54.5zM98 61q0 -63 82 -63q62 0 158.5 44.5t221.5 160.5t257 315q-217 -39 -381.5 -124 t-251 -178t-86.5 -155zM1286 639q269 77 419 163.5t205.5 157t55.5 109.5q0 47 -53 47q-66 0 -159 -55t-193.5 -141t-170 -159t-104.5 -122z" />
<glyph unicode="I" horiz-adv-x="961" d="M37 113q0 34 19 55.5t48 21.5q21 0 33.5 -10.5t12.5 -29.5q0 -39 -46 -39q-30 0 -38 36q-11 -14 -11 -36q0 -56 58.5 -84.5t128.5 -28.5q122 0 227 54t185.5 138.5t149 189t95.5 146.5q-64 15 -100.5 57.5t-36.5 106.5q0 53 39.5 126t136 145.5t266.5 120.5t422 48v-10 q-143 -62 -251.5 -140t-181 -157t-117.5 -149.5t-87 -147.5q241 3 289 283h14q-40 -299 -315 -299q-48 -96 -122 -188.5t-172.5 -170t-211 -122.5t-233.5 -45q-88 0 -144.5 35.5t-56.5 93.5zM805 674q0 -113 104 -133q139 184 246 287.5t200.5 163.5t229.5 126 q-202 -3 -353 -51t-245 -120t-138 -146t-44 -127z" />
<glyph unicode="J" horiz-adv-x="1024" d="M-391 -338q0 223 913 363q101 113 223 276q126 171 175 221q-71 27 -100 65t-29 97q0 99 73 189t201.5 154t299.5 93q103 18 213 18q72 0 146 -8v-14h-11q-118 0 -241 -81q-129 -85 -245.5 -219t-220.5 -290q105 0 173 29.5t107 77.5t72 117h18q-49 -123 -133 -180.5 t-215 -57.5h-35l-39 -57q-88 -130 -154 -212.5t-165 -187.5q102 29 168.5 60t107 61.5t125.5 106.5v-17q-34 -35 -75.5 -71t-88 -63.5t-105.5 -50t-159 -50.5q-69 -68 -165.5 -147.5t-209 -151.5t-234 -117t-235.5 -45q-70 0 -112.5 26t-42.5 66zM-379 -336q0 -34 41 -57 t105 -23q145 0 302 81.5t276 182t161 156.5q-229 -34 -427.5 -83t-328 -114.5t-129.5 -142.5zM807 680q0 -108 125 -143q53 60 124.5 141.5t167 175.5t203.5 169t209 99q-29 1 -58 1q-166 0 -300 -35q-158 -41 -261.5 -109.5t-156.5 -149t-53 -149.5z" />
<glyph unicode="K" horiz-adv-x="1430" d="M37 111q0 33 17 53t50 20q39 0 39 -34q0 -33 -39 -33q-34 0 -34 39q-19 -11 -19 -47q0 -46 44 -78.5t136 -32.5q99 0 181.5 33t148.5 88t113 111.5t123 158.5q86 118 129 173t114 140l23 27q48 56 160 170l32 35q-9 -5 -26.5 -13t-36.5 -12.5t-43 -3.5q-36 1 -58 21.5 t-22 54.5q0 -2 5 27t5 41q0 67 -125 67q-121 0 -207.5 -39t-132 -98.5t-45.5 -118.5q0 -48 44 -79t114 -31q153 0 281 149l10 -8q-63 -75 -135.5 -115.5t-157.5 -40.5q-78 0 -125 34t-47 89q0 70 49 133t141.5 101t210.5 38q168 0 168 -118q0 -4 -4 -28t-4 -30q0 -34 45 -34 q37 0 75.5 20.5t78.5 53.5t47 38q12 8 36 30.5t45.5 37t37.5 14.5q14 0 0.5 -14.5t-27.5 -22.5q-29 -20 -117 -94q-98 -88 -161.5 -169t-165.5 -243q-56 -89 -94 -143.5t-75.5 -99t-80.5 -90.5q-78 -81 -156 -137t-169.5 -86.5t-207.5 -30.5q-95 0 -141.5 35.5t-46.5 91.5z M965 59q0 51 10.5 87t29.5 68.5t40 56t53 57.5q119 126 119 186q0 29 -5 39q-39 -16 -77 -16q-35 0 -58.5 16t-23.5 41q0 23 19 37t48 14q65 0 105 -72q61 29 109.5 65t133.5 132q151 169 275.5 264.5t251.5 95.5q86 0 86 -53q0 -28 -25 -28q-22 0 -22 24q0 2 2 14t2 15 q0 9 -12.5 13.5t-32.5 4.5q-156 0 -297 -166q-91 -106 -156 -173.5t-146.5 -130t-164.5 -93.5q6 -33 6 -49q0 -62 -41.5 -146.5t-118.5 -175.5q-90 -107 -90 -143q0 -45 51 -45q34 0 79 23.5t88.5 56.5t98.5 81t89 77l55 47v-17q-125 -112 -189.5 -166.5t-121 -85 t-107.5 -30.5q-63 0 -63 75zM1067 594q0 -43 70 -43q28 0 73 16q-37 64 -92 64q-22 0 -36.5 -11.5t-14.5 -25.5z" />
<glyph unicode="L" horiz-adv-x="1217" d="M49 45q0 64 150 64q58 0 112.5 -9.5t130.5 -36.5l43 -14q118 66 208 155.5t186 244.5l26 43q-86 -21 -170 -21q-99 0 -169.5 32t-107 88t-36.5 126q0 103 84.5 199.5t236 155t342.5 58.5v-14q-178 -1 -324 -57.5t-228 -148t-82 -199.5q0 -101 77.5 -158t219.5 -61h15 q72 0 161 26q95 130 210 261t260.5 241t268.5 110q76 0 76 -65q0 -49 -52 -121t-147.5 -151t-228.5 -149.5t-287 -119.5l-16 -22q-90 -124 -119.5 -163t-82.5 -93.5t-126.5 -106.5t-171.5 -98q124 -43 254 -43q66 0 121.5 21t124.5 74.5t221 189.5v-17q-107 -97 -171 -151 t-110 -81t-90.5 -38.5t-95.5 -11.5q-116 0 -273 47q-70 -25 -133.5 -36t-138.5 -11q-168 0 -168 61zM70 45q0 -47 145 -47q131 0 242 43q-72 24 -145.5 38.5t-121.5 14.5q-57 0 -88.5 -14t-31.5 -35zM1032 543q162 54 292.5 130t214.5 151t128.5 139t44.5 95q0 25 -12 42 q-12 16 -34 16h-3q-111 -7 -235 -101t-230 -226.5t-166 -245.5z" />
<glyph unicode="M" horiz-adv-x="1493" d="M70 78q0 30 13.5 51t43.5 21q16 0 29.5 -11.5t13.5 -27.5q0 -14 -9.5 -24.5t-23.5 -10.5q-36 0 -26 41q0 6 -2 8q-11 0 -18 -15.5t-7 -33.5q0 -33 32.5 -55.5t80.5 -22.5q88 0 164.5 31.5t134.5 79.5t96 89t149 167q59 66 187.5 193.5t204.5 199.5q85 80 144.5 134 t103 90t93.5 71.5t117 76.5l13 -8q-169 -188 -207 -237l-19 -23q-5 -7 -26 -33q-142 -164 -310 -370q-133 -167 -187.5 -239t-82.5 -116t-39 -75t4 -31q19 0 65.5 39.5t100.5 96.5t174 185q28 31 57 62.5t67.5 73t72.5 77.5q137 146 206.5 213.5t170.5 157.5l57 51 q129 115 234 176l12 -8l-41 -49q-210 -252 -369.5 -450.5t-246.5 -314t-138 -193t-51 -95.5q0 -22 22 -22q34 0 95 43.5t145.5 120t134.5 121.5v-17q-129 -119 -187.5 -170.5t-107 -81.5t-88.5 -30q-37 0 -37 41q0 80 58.5 188t154 226t238.5 268l362 376 q-104 -57 -370 -309q-11 -10 -31 -30l-64 -64t-116.5 -121t-138.5 -147l-29 -31q-12 -16 -29 -33q-126 -139 -188.5 -206t-117 -112.5t-85.5 -45.5q-7 0 -13.5 12t-6.5 22q0 66 40.5 147.5t99 160t120.5 147.5q163 185 249.5 278.5t206.5 209.5l142 135q-91 -59 -139 -95.5 t-138 -115.5q-39 -34 -117 -107.5t-141 -135.5t-132 -133t-146 -155q-100 -109 -141.5 -154t-108.5 -99.5t-141.5 -85.5t-159.5 -31q-59 0 -96 25t-37 69z" />
<glyph unicode="N" horiz-adv-x="1237" d="M27 86q0 34 20 57t49 23q39 0 39 -37t-39 -37q-31 0 -39 35q-16 -22 -16 -47q0 -35 38.5 -58.5t96.5 -23.5q63 0 120.5 19t119 59.5t127 100t145.5 147.5q91 99 223.5 258t192.5 241l102 142l34 47q35 47 44 61q36 57 49 57q8 0 8 -8q0 -5 -10 -18q-131 -159 -160 -316 l-43 -233q-10 -59 -30.5 -129.5t-50.5 -163.5l188 254q204 278 334 408q98 98 201 152t196 54q156 0 156 -94q0 -26 -15 -43.5t-34 -17.5q-10 0 -18.5 9.5t-8.5 21.5q0 14 8 22t21 8q6 0 14.5 -5t13.5 -9q4 0 4 14q0 82 -139 82q-113 0 -244.5 -88.5t-273.5 -257.5 q-48 -57 -120.5 -151.5t-151.5 -206t-154 -219.5q-85 -123 -121 -167t-65 -44q-11 0 -11 6q0 11 29 30q63 43 101.5 110.5t52.5 180.5l4 33q20 162 52 265t85 233q19 44 25 55l-15 -16l-18 -25q-79 -105 -167.5 -217.5t-151 -185t-135.5 -151t-116 -120.5q-51 -49 -96 -84 t-91 -59.5t-98 -39.5t-106 -15q-74 0 -114.5 26.5t-40.5 75.5z" />
<glyph unicode="O" horiz-adv-x="897" d="M47 168q0 104 52 215.5t157 232t256 242.5q170 135 322.5 203.5t289.5 68.5q86 0 135.5 -35.5t49.5 -97.5q0 -69 -44 -109.5t-128 -62.5l2 15q78 18 116.5 60.5t38.5 96.5q0 57 -47 88t-129 31q-148 0 -306 -77.5t-296 -219.5q-81 -83 -157 -179t-139 -194.5 t-100.5 -181.5t-37.5 -139q0 -52 35.5 -89.5t97.5 -37.5q124 0 274.5 100.5t289 255.5t225 309.5t86.5 249.5q0 50 -24.5 79.5t-68.5 29.5q-51 0 -129 -31.5t-156 -90t-151 -149.5t-117 -202h-12q48 120 123 214t156.5 153.5t157 88.5t126.5 29q50 0 79.5 -32.5t29.5 -88.5 q0 -97 -86 -254t-224 -314t-291 -259t-282 -102q-77 0 -125.5 46t-48.5 138z" />
<glyph unicode="P" horiz-adv-x="1153" d="M96 109q0 30 22.5 53.5t51.5 23.5q45 0 45 -43q0 -39 -45 -39q-17 0 -24.5 7.5t-18.5 29.5v2q-14 -9 -14 -45q0 -37 50 -68.5t136 -31.5q147 0 274.5 69t235 188.5t215.5 285.5q68 106 124 180t107.5 127.5t102.5 96t108 83.5q-73 88 -209 88q-159 0 -298.5 -55.5 t-241.5 -140t-160.5 -179t-58.5 -163.5q0 -50 29.5 -81.5t78.5 -31.5q94 0 204 68t199.5 184.5t125.5 249.5l12 -4q-39 -149 -127.5 -266t-199 -181.5t-210.5 -64.5q-58 0 -92.5 32.5t-34.5 87.5q0 86 61.5 184t170.5 184t249.5 138.5t290.5 52.5q136 0 226 -90 q93 61 168 88l4 -10q-78 -29 -162 -92q26 -36 34.5 -64t8.5 -79q0 -52 -31 -120t-86 -115.5t-121 -47.5q-27 0 -45 19t-18 45q0 56 54 107.5t140 78.5l5 -10q-90 -30 -138.5 -76t-48.5 -100q0 -21 12.5 -35.5t34.5 -14.5q31 0 67.5 27t72.5 75t56.5 101t20.5 103 q0 47 -32 94q-79 -57 -141.5 -121.5t-105.5 -126.5t-87 -145q-83 -161 -144.5 -251.5t-128.5 -150.5q-81 -74 -176.5 -127t-196.5 -80.5t-200 -27.5q-100 0 -150.5 33.5t-50.5 91.5z" />
<glyph unicode="Q" horiz-adv-x="961" d="M45 172q0 142 107.5 308.5t282.5 317t360 241.5t329 91q88 0 136.5 -36.5t48.5 -104.5q0 -65 -41.5 -107t-126.5 -63v10q77 19 116 62t39 98q0 60 -43 93.5t-129 33.5q-187 0 -372.5 -120t-334 -294.5t-240 -340.5t-91.5 -242q0 -56 36.5 -88.5t104.5 -32.5q66 0 152 35 q-8 24 -12 47q-20 108 -103 108q-44 0 -102 -34l-8 10q59 39 108 39q50 0 86.5 -29.5t85.5 -112.5q79 44 132 85t126 112q88 86 181.5 204t157 238t63.5 211q0 48 -26 76.5t-71 28.5q-80 0 -185.5 -57t-204 -164.5t-158.5 -251.5l-17 4q35 93 98.5 180.5t143 155t165 107.5 t160.5 40q51 0 80 -34.5t29 -86.5q0 -111 -88 -260.5t-213 -290t-209 -206.5q-53 -43 -154 -103q24 -32 42 -41.5t53 -9.5q112 0 438 285v-17q-99 -85 -163.5 -136t-117 -83t-97 -47.5t-81.5 -15.5q-86 0 -131 34q-84 -34 -166 -34q-83 0 -129.5 50.5t-46.5 137.5z" />
<glyph unicode="R" horiz-adv-x="1430" d="M35 109q0 31 17 54t44 23q41 0 41 -34q0 -13 -11 -23t-24 -10q-29 0 -32 39q-7 0 -14 -17t-7 -35q0 -51 52.5 -79.5t146.5 -28.5q126 0 228.5 39.5t188 107t155.5 145.5t179 212l29 35q130 159 240.5 275.5t277.5 219.5q-46 45 -104.5 64.5t-159.5 19.5 q-176 0 -325.5 -58t-251 -146t-156.5 -182t-55 -159q0 -50 34 -81t90 -31q73 0 154.5 35t159.5 104t136.5 167.5t80.5 213.5l12 2q-23 -140 -85.5 -243t-145.5 -169t-162.5 -95.5t-142.5 -29.5q-76 0 -113 32.5t-37 88.5q0 71 54.5 166.5t160.5 188t258.5 151.5t335.5 59 q96 0 157.5 -18.5t123.5 -71.5q81 44 161 68l3 -10q-85 -30 -154 -68q76 -93 76 -201q0 -82 -41.5 -153.5t-125.5 -129.5t-206 -97q0 -75 -22 -121.5t-93 -124.5q-104 -117 -104 -174q0 -31 28 -31q36 0 124.5 75.5t228.5 209.5v-17q-99 -105 -206 -193.5t-147 -88.5 q-49 0 -49 63q0 79 34 138t87 114q52 53 72.5 83t28.5 62q-31 -6 -70 -6q-31 0 -48.5 14t-17.5 35q0 25 18.5 40.5t45.5 15.5q59 0 88 -74q115 41 188.5 123.5t105.5 169.5t32 143q0 67 -43 115q-81 -50 -144.5 -104.5t-126 -132.5t-153.5 -212l-19 -26 q-46 -68 -71.5 -104.5t-49 -65.5t-59.5 -66q-316 -325 -684 -325q-106 0 -161.5 32t-55.5 93zM1139 487q0 -21 17.5 -27.5t47.5 -6.5q25 0 56 10q-17 65 -72 65q-22 0 -35.5 -11t-13.5 -30z" />
<glyph unicode="S" horiz-adv-x="1110" d="M51 109q0 25 12.5 44t38.5 19q19 0 30 -12t11 -29q0 -10 -9.5 -20.5t-22.5 -10.5q-15 0 -21.5 2.5t-15.5 18.5q-4 -4 -4 -23q0 -20 17.5 -43t68.5 -40t137 -17q177 0 317 92.5t225.5 206t153.5 240.5q-130 -37 -223 -37q-127 0 -210 61.5t-83 155.5q0 102 91 201 t252.5 162t352.5 63v-13q-200 -1 -355.5 -66t-236.5 -159t-81 -180q0 -95 74 -154t192 -59q116 0 239 43q11 13 35 51q84 130 170 230.5t162 164.5t145 96.5t123 32.5q56 0 56 -43q0 -68 -91.5 -171t-231.5 -199t-282 -148l-20 -39q-287 -546 -788 -546q-106 0 -167 33.5 t-61 91.5zM1094 586q107 66 210.5 142.5t190 151.5t134.5 129t48 76q0 31 -39 31q-82 0 -182 -68t-186 -174q-46 -55 -86.5 -122t-89.5 -166z" />
<glyph unicode="T" horiz-adv-x="1153" d="M61 109q0 34 19 55.5t45 21.5q45 0 45 -39q0 -13 -9.5 -23.5t-23.5 -10.5q-35 0 -35 31q0 10 4 24q-17 -10 -23.5 -23t-6.5 -34q0 -48 53.5 -80.5t149.5 -32.5q145 0 273 49t193 113q39 37 72 73.5t88 106.5t135 182l27 37q247 345 506 471l10 -8q-90 -47 -160.5 -100.5 t-127 -122t-103.5 -152.5q-86 -154 -132 -225.5t-95 -126.5q-68 -75 -150.5 -135t-166.5 -98t-176.5 -58t-182.5 -20q-119 0 -173.5 35.5t-54.5 89.5zM604 719q0 54 37.5 121.5t116 130t202 103t289.5 40.5q115 0 301 -18q171 -17 258 -17q85 0 142 10t80 27h18 q-40 -36 -133 -58t-166 -22q-40 0 -219 27q-256 37 -324 37q-132 0 -244 -36.5t-189.5 -97t-117 -126t-39.5 -123.5q0 -56 40.5 -89.5t105.5 -33.5q50 0 115.5 23.5t130 68t125.5 114.5t100 152h14q-81 -164 -184 -246t-179.5 -103t-115.5 -21q-76 0 -120 37t-44 100z" />
<glyph unicode="U" horiz-adv-x="897" d="M45 33q0 55 33.5 113.5t101.5 136.5l463 528q113 130 113 205q0 45 -37.5 72.5t-116.5 27.5q-123 0 -236 -59.5t-182 -145.5q-71 -89 -71 -156q0 -34 26 -55q27 -22 66 -22q64 0 146 39t158 118.5t124 192.5h14q-26 -76 -72 -139.5t-109 -116t-128.5 -80.5t-128.5 -28 q-111 0 -111 90q0 77 70.5 166.5t189.5 149.5t252 60q162 0 162 -129q0 -149 -117 -284l-481 -547q-56 -65 -77 -93.5t-21 -45.5q0 -33 43 -33q92 0 233 99t273 225t184 186l463 524h92l-838 -954q-26 -31 -26 -53q0 -27 30 -27q52 0 142.5 73t236.5 212v-17 q-149 -143 -235.5 -212.5t-149.5 -69.5q-18 0 -31.5 13.5t-13.5 35.5q0 97 144 262q15 19 19 22t9 7q-140 -129 -244.5 -205.5t-172 -105.5t-121.5 -29q-40 0 -54 19t-14 30z" />
<glyph unicode="V" horiz-adv-x="725" d="M86 -6q107 105 175.5 187t141.5 196l29 45q110 172 195 272l32 39q59 72 211 246q-57 -40 -94.5 -58t-93.5 -18q-109 0 -109 78q0 4 4.5 28t4.5 33q0 35 -34 54.5t-87 19.5q-79 0 -144.5 -23.5t-112.5 -62.5t-73.5 -83.5t-26.5 -86.5q0 -54 41 -88.5t101 -34.5 q75 0 150 45t132 107l11 -4q-59 -77 -138.5 -119.5t-152.5 -42.5q-68 0 -113 38t-45 95q0 72 54 135.5t140 101t169 37.5q109 0 138.5 -48.5t29.5 -116.5q0 -27 10.5 -37t38.5 -10q85 0 153.5 46t130.5 115q9 10 16.5 18.5t15 16.5t14.5 12t14 4q13 0 1 -14.5t-42.5 -44 t-61.5 -63.5q-34 -40 -86 -114t-84 -128q-65 -113 -119.5 -192t-116 -155.5t-119 -138.5t-193.5 -202l-70 -72q138 58 278 172t253 232t276 299q64 72 125 135t139 127.5t170 111.5t176 47q137 0 137 -96q0 -21 -12 -35t-31 -14q-37 0 -37 33q0 21 13 28t37 7q10 0 10 4 q0 21 -32 40t-83 19q-95 0 -203 -65t-214 -164t-187.5 -192t-112.5 -128q-59 -66 -142 -153t-174.5 -168t-197.5 -151.5t-219 -110.5z" />
<glyph unicode="W" horiz-adv-x="1044" d="M92 -6q65 58 128.5 146.5t150.5 228.5q50 81 53 86l14 24q159 241 332 414l72 72q-94 -66 -172 -66q-82 0 -82 72q0 3 4 30t4 33q0 16 -16 35.5t-48 33t-77 13.5q-99 0 -178.5 -44t-121.5 -107.5t-42 -116.5q0 -52 39.5 -85.5t101.5 -33.5q82 0 150.5 41t138.5 123l6 -10 q-127 -168 -297 -168q-70 0 -112 36t-42 97t45 127.5t126 110.5t188 44q80 0 129 -35.5t49 -90.5q0 -5 -2 -25t-2 -23q0 -43 49 -43q71 0 144.5 56t140.5 123q12 12 20 20.5t14.5 13t14.5 4.5t8 -4q0 -7 -45 -47q-106 -92 -183.5 -194t-160.5 -242q-67 -112 -102.5 -165.5 t-116.5 -151t-230 -260.5l-41 -46q80 47 154 105t126.5 107t111.5 108.5t159 167.5l72 78q84 92 163 175.5t146 150t134 123.5t126 95l13 -10q-172 -193 -207 -241q-13 -19 -60 -92t-83 -128.5t-85 -128.5q-134 -194 -198.5 -273.5t-182.5 -205.5l-28 -31q65 36 150 105 t163.5 145t149.5 150.5t114 120.5q61 64 173 179.5t213.5 203t207 147t195.5 59.5q57 0 91 -25t34 -69q0 -23 -11 -37t-28 -14q-33 0 -33 31t31 31q4 0 11 -2.5t9 -2.5q6 0 6 11q0 27 -29.5 45t-78.5 18q-90 0 -198 -63t-196 -141.5t-175.5 -170t-128.5 -135.5 q-75 -75 -189 -192.5t-200.5 -199.5t-166 -141t-153.5 -91l-8 12q121 133 176 231q203 354 368 543l66 74q67 76 121 133q56 56 56 62q0 1 -1 1q-7 0 -78.5 -66.5t-164.5 -159.5t-160 -167l-39 -43q-72 -82 -161 -175.5t-181 -181t-185 -158.5t-174 -105z" />
<glyph unicode="X" horiz-adv-x="1260" d="M53 51q0 89 119.5 191.5t331 192t481.5 145.5q77 94 119.5 158.5t61 117t18.5 107.5q0 70 -46 111.5t-114 41.5q-140 0 -251 -58.5t-172.5 -139t-61.5 -142.5q0 -46 32.5 -73t90.5 -27q77 0 157.5 39t147.5 109.5t114 164.5l13 -4q-69 -139 -160.5 -211.5t-162 -92 t-112.5 -19.5q-63 0 -99 30.5t-36 81.5q0 75 67.5 159t182.5 140.5t248 56.5q55 0 97 -21t63.5 -65t21.5 -108q0 -49 -9 -92t-30 -96q192 180 357.5 281t281.5 101q35 0 54.5 -16.5t19.5 -48.5q0 -65 -69 -141t-249 -164t-470 -170q-112 -129 -170.5 -209.5t-106.5 -163.5 q-33 -58 -49 -99t-16 -65q0 -25 19 -40t50 -15q55 0 130 36.5t159 101.5t168 147v-17q-290 -282 -459 -282q-40 0 -64 20t-24 57q0 96 129 312q-145 -139 -279 -227.5t-238 -125t-183 -36.5q-50 0 -76.5 13t-26.5 54zM68 53q0 -55 88 -55q57 0 143 31t189 95.5t223.5 172 t253.5 264.5q-216 -47 -385.5 -112t-283 -136.5t-171 -138.5t-57.5 -121zM1108 608q267 78 436 160.5t244.5 157t75.5 133.5q0 27 -16 42t-48 15q-89 0 -211.5 -68.5t-251 -186t-229.5 -253.5z" />
<glyph unicode="Y" horiz-adv-x="918" d="M66 119q0 36 18 57t51 21q37 0 37 -33q0 -31 -33 -31q-25 0 -35 35q-10 -3 -17 -18t-7 -31q0 -54 51 -87.5t127 -33.5q99 0 187.5 44t162 115.5t146.5 164.5t133 170q-113 -127 -220 -179.5t-175 -52.5q-80 0 -80 70q0 58 47 139.5t217 251.5q97 97 137.5 163t40.5 122 q0 50 -40 80t-103 30q-116 0 -222 -54.5t-169.5 -132.5t-63.5 -141q0 -38 25 -59.5t65 -21.5q92 0 176.5 44.5t144 114t74.5 127.5l15 -2q-15 -65 -78 -136.5t-153.5 -117t-180.5 -45.5q-38 0 -70 21.5t-32 72.5q0 77 69 158t176.5 133.5t212.5 52.5q174 0 174 -157 q0 -49 -17.5 -97.5t-55 -101.5t-105.5 -127l-39 -43l-41 -41q-105 -109 -147.5 -161t-42.5 -80q0 -19 16 -33.5t45 -14.5q75 0 160.5 47t159 112t119.5 118l434 481h86l-559 -633q-129 -146 -225 -233t-195.5 -134.5t-208.5 -47.5q-56 0 -100 16.5t-68 47.5t-24 71z" />
<glyph unicode="Z" horiz-adv-x="1110" d="M53 2q0 37 64 78t231 121l82 39l352 370q-51 17 -86 17q-51 0 -102 -45l-10 6q32 40 96 57q34 9 71 9q33 0 70 -7l131 115q28 22 73.5 60t57.5 52q-139 5 -139 84q0 24 12 52q13 26 13 39q0 28 -47 47.5t-109 19.5q-124 0 -209 -43.5t-123.5 -102t-38.5 -100.5 q0 -48 37.5 -77t100.5 -29q87 0 157 38t154 122l10 -9q-77 -83 -154.5 -124t-164.5 -41q-70 0 -112 33.5t-42 86.5q0 54 44.5 115t132 103t204.5 42q90 0 144.5 -29t54.5 -85q0 -21 -13 -53q-8 -20 -8 -29q0 -47 100 -47h9l39 31q119 95 208 153.5t148 58.5q15 0 25 -8.5 t10 -21.5q0 -35 -56.5 -81.5t-154.5 -87t-203 -54.5l-223 -242q44 -12 80 -12q28 0 51 7t51 23l6 -10q-41 -30 -89 -43q-31 -8 -80 -8q-27 0 -58 2q-58 -59 -177.5 -167.5t-189.5 -162.5q47 18 95.5 31.5t102 23t85.5 9.5q96 0 96 -70q0 -75 -102 -164q-62 -52 -62 -78 q0 -20 35 -20q26 0 84 32.5t138 98.5t169 156l2 -17q-80 -85 -156 -148.5t-137.5 -98.5t-99.5 -35q-49 0 -49 51q0 43 20 81.5t78 78.5q62 41 62 77q0 19 -18.5 30t-59.5 11q-42 0 -153.5 -26t-172.5 -56q-129 -109 -205.5 -163t-117.5 -72q-28 -12 -43 -12q-21 0 -21 18z M1124 891q114 22 203.5 64t136.5 82.5t47 58.5q0 20 -26 20q-32 0 -88 -32t-135 -90t-138 -103z" />
<glyph unicode="[" horiz-adv-x="555" d="M-254 -238l1188 1356h250l-10 -14h-195l-1161 -1327h254l-11 -15h-315z" />
<glyph unicode="\" horiz-adv-x="319" d="M-162 -164l629 1061l45 -1l-631 -1061z" />
<glyph unicode="]" horiz-adv-x="555" d="M-401 -238l10 15h194l1162 1327h-254l10 14h315l-1188 -1356h-249z" />
<glyph unicode="^" horiz-adv-x="512" d="M27 309l258 430h18l256 -430h-57l-209 353l-209 -353h-57z" />
<glyph unicode="_" horiz-adv-x="1024" d="M-16 -154h1056v-102h-1056v102z" />
<glyph unicode="`" horiz-adv-x="682" d="M500 784h92q-5 -109 14 -182h-12q-71 91 -94 182z" />
<glyph unicode="a" horiz-adv-x="532" d="M-66 129q0 51 30 100.5t80.5 87.5t113 60t121.5 22q29 0 42.5 -10.5t14.5 -34.5q-1 -5 -1.5 -9.5t-2 -12.5t-2.5 -13l63 74l84 6l-26 -32q-32 -38 -52 -62.5t-34 -40.5q-156 -169 -156 -198q0 -15 14 -15q19 0 57 22.5t85.5 59.5t108.5 87.5t71 58.5v-17l-51 -43 q-120 -100 -177.5 -141t-101.5 -41q-29 0 -29 33q0 35 27 98q-143 -131 -211 -131q-30 0 -49 23.5t-19 68.5zM-35 86q0 -15 10 -25t25 -10q41 0 118 57t139 129t62 113q0 35 -38 35q-60 0 -133.5 -59t-128 -134t-54.5 -106z" />
<glyph unicode="b" horiz-adv-x="492" d="M-12 242v16l32 29q92 80 150 131t128 113t94.5 85t43.5 43l234 261h86l-645 -717q-69 -77 -83.5 -114.5t13.5 -37.5q76 0 159 53t139 122.5t56 109.5q0 55 31 55q12 0 12 -12q0 -66 -86 -166q8 0 15 -1q43 0 66 11q27 12 71 60v-17q-42 -46 -73 -58q-22 -8 -57 -9 q-16 0 -34 2q-75 -84 -155.5 -124t-145.5 -40q-45 0 -45 43q0 37 18.5 75.5t63.5 96.5q11 16 37 45.5t70.5 79.5t82 92.5t39.5 44.5z" />
<glyph unicode="c" d="M-57 135q0 48 30.5 97t80.5 86.5t110 59t117 21.5q26 0 42.5 -13t16.5 -36q0 -26 -20.5 -46.5t-45.5 -20.5q-30 0 -30 26q0 39 35 39q20 0 24 -18q4 -6 8 -6q5 0 10 8t5 18q0 16 -11 25.5t-30 9.5q-53 0 -128.5 -57t-130.5 -130t-55 -114q0 -33 49 -33q91 0 177 56 t221 176v-17q-237 -229 -395 -229q-42 0 -61 21.5t-19 76.5z" />
<glyph unicode="d" horiz-adv-x="532" d="M-49 131q0 74 56 136t138 97t146 35q51 0 51 -43q0 -30 -12 -53l540 617h82l-630 -719q-21 -24 -46 -54t-36.5 -47t-16.5 -33t15 -16q25 0 123 77.5t184 154.5v-17q-118 -103 -198.5 -166t-117.5 -63q-26 0 -26 31q0 40 28 104q0 1 -1.5 2.5t-2.5 1.5 q-139 -139 -219 -139q-57 0 -57 94zM-23 84q0 -33 31 -33q44 0 121.5 57.5t138 129.5t60.5 110q0 37 -41 37t-117 -57.5t-134.5 -130t-58.5 -113.5z" />
<glyph unicode="e" d="M-59 133q0 80 60.5 140.5t142 93t132.5 32.5q29 0 45.5 -13.5t16.5 -35.5q0 -34 -37 -62.5t-103 -47t-155 -21.5q-76 -86 -76 -131q0 -16 16.5 -26.5t41.5 -10.5q161 0 393 232v-17q-112 -112 -205 -170.5t-188 -58.5q-84 0 -84 96zM63 238q83 0 140 21t86.5 50t29.5 47 q0 29 -34 29q-45 0 -105 -39.5t-117 -107.5z" />
<glyph unicode="f" d="M-451 -401l185 213q48 56 113 143t112.5 157.5t89.5 143.5l-2 33q-15 -9 -29.5 -18.5t-29.5 -20.5v18q2 2 31.5 21.5t31.5 21.5q1 31 17.5 57.5t33.5 26.5q27 0 19 -39q133 67 147 74l240 279q262 307 385 307q23 0 39 -14t16 -37q0 -61 -79.5 -149t-221 -187 t-311.5 -183l-215 -258q39 -20 72 -20q72 0 115 26.5t110 88.5v-17q-64 -64 -110 -87t-113 -23q-44 0 -84 20l-482 -577h-80zM-82 25l156 180l-19 33q-3 -5 -35.5 -55t-54 -83.5t-47.5 -74.5zM68 248q3 -14 18 -29q10 14 77 91t77 91q-43 -20 -121 -63q-1 -9 -7 -20 t-12.5 -20t-15.5 -22q-16 -19 -16 -28zM360 475q113 57 214.5 122.5t183.5 134.5t129 129.5t47 101.5q0 18 -11 28t-30 10q-66 0 -171.5 -108t-264.5 -301z" />
<glyph unicode="g" horiz-adv-x="532" d="M-508 -436q0 42 42 92t120 99.5t182 92.5l146 62l14 8l149 188q-17 -10 -28 -18q-72 -49 -113 -49q-70 0 -70 92q0 56 34.5 105t88.5 84.5t112 55t107 19.5q60 0 60 -43q0 -12 -8 -37l69 80h84l-372 -424q94 46 194.5 119.5t241.5 192.5v-17q-97 -84 -166 -138.5 t-142 -100.5t-151 -82q-128 -140 -214.5 -226.5t-144 -132.5t-96.5 -64t-73 -18q-30 0 -48 17t-18 43zM-494 -436q0 -21 15 -33t39 -12q48 0 107.5 41t142.5 131q124 145 167 205q-186 -80 -274 -126.5t-147 -109.5q-50 -56 -50 -96zM-35 84q0 -12 12.5 -21.5t26.5 -9.5 q40 0 117 57t139 128.5t62 107.5q0 16 -13.5 25.5t-32.5 9.5q-56 0 -129.5 -57t-127.5 -131t-54 -109z" />
<glyph unicode="h" horiz-adv-x="662" d="M-82 37l531 604l-461 -399v16l286 252q121 105 185 163t114 110t125 137h82l-665 -754q95 80 212.5 156.5t157.5 76.5q45 0 45 -49q0 -57 -37 -101t-100 -91q-78 -57 -78 -86q0 -21 25 -21q48 0 129 57t205 171v-17l-29 -26q-100 -92 -179.5 -145.5t-125.5 -53.5 q-45 0 -45 43q0 82 88 158q67 59 92 85t25 46q0 5 -5.5 10.5t-13.5 5.5q-39 0 -219 -129q-148 -107 -258 -219h-86z" />
<glyph unicode="i" horiz-adv-x="319" d="M-35 72q0 104 162 266q9 9 16.5 17.5t14.5 15.5q-90 -54 -168 -127l-2 16q76 69 178 131h90l-236 -264q-25 -28 -32 -52t12 -24q50 0 149 74t183 156v-17q-97 -93 -187 -160t-147 -67q-33 0 -33 35zM299 563q0 14 11 26.5t26 12.5q22 0 22 -27q0 -16 -9 -26t-23 -10 q-27 0 -27 24z" />
<glyph unicode="j" horiz-adv-x="362" d="M-598 -426q0 86 143 199q56 46 144.5 100.5t197.5 108.5l299 395q-38 -9 -80 -38t-118 -93v16q71 64 114.5 91t87.5 38h91l-301 -364q86 34 196.5 106t196.5 146v-17q-194 -168 -416 -260l-20 -25q-185 -221 -274.5 -317t-128 -121.5t-73.5 -25.5q-27 0 -43 16t-16 45z M-584 -424q0 -49 45 -49q78 0 238 205l90 116q35 47 78 111q-144 -79 -233 -136t-153.5 -123t-64.5 -124zM326 559q0 15 11 28t25 13q25 0 25 -25q0 -14 -10 -26t-23 -12q-10 0 -19 7t-9 15z" />
<glyph unicode="k" horiz-adv-x="662" d="M-80 47l516 578q-32 -29 -67 -59t-61 -52.5t-68 -58.5q-98 -84 -120 -103t-100 -84l-32 -26v16l106 92q-1 0 172 148l174 149q65 55 136.5 132t123.5 141h84l-780 -873h-84zM244 266q0 13 26 13q17 0 58 -13q44 19 98 64q49 40 80.5 54.5t68.5 14.5q56 0 56 -32 q0 -23 -23 -23q-26 0 -26 23l4 18q0 4 -6 4q-50 0 -115 -59q-38 -36 -121 -72q21 -30 21 -61q0 -45 -39 -84q-31 -36 -31 -45q0 -17 22 -17q49 0 129.5 53t225.5 179v-17l-49 -43q-120 -104 -186.5 -145t-123.5 -41q-47 0 -47 53q0 51 47 109q21 25 21 43q0 12 -12 12 q-3 0 -17 -2t-18 -2q-43 0 -43 16z" />
<glyph unicode="l" horiz-adv-x="319" d="M-23 82q0 51 50 119t135 159q6 8 36 42.5t58 68.5q-69 -52 -266 -227v16l284 246q52 44 342 360l50 54h77l-630 -705q-113 -124 -113 -145q0 -19 20 -19q35 0 80 29.5t121.5 98.5t112.5 100v-17q-136 -125 -199 -175t-115 -50q-18 0 -30.5 13.5t-12.5 31.5z" />
<glyph unicode="m" horiz-adv-x="938" d="M-76 47l211 236q72 74 72 88t-12 14q-17 0 -51 -21.5t-74 -53.5t-82 -68v18q74 67 124 103t89 36q32 0 32 -43q0 -36 -21 -69.5t-71 -96.5q140 115 210.5 162t121.5 47q37 0 37 -34q0 -68 -100 -187l28 21q67 49 128 94t117.5 75.5t90.5 30.5q16 0 25.5 -12.5t9.5 -36.5 q0 -46 -30.5 -90.5t-104.5 -99.5q-30 -22 -57 -51t-27 -39q0 -19 28 -19q44 0 116.5 53.5t215.5 174.5v-17q-136 -117 -208.5 -171t-127.5 -54q-39 0 -39 39q0 43 29 87t98 109q80 75 80 95q0 18 -16 18q-26 0 -113 -55.5t-192.5 -137t-173.5 -145.5h-84l155 170 q16 17 48.5 51t55.5 61.5t23 37.5q0 5 -4.5 10.5t-13.5 5.5q-56 0 -167 -87t-261 -222l-29 -27h-86z" />
<glyph unicode="n" horiz-adv-x="662" d="M-72 47l133 150q146 163 146 178q0 10 -12 10q-44 0 -209 -143v16q152 141 213 141q34 0 34 -43q0 -34 -21 -67t-85 -115q124 103 215 164t156 61q34 0 34 -47q0 -46 -32 -91.5t-105 -98.5q-78 -59 -78 -84q0 -10 9.5 -18.5t19.5 -8.5q35 0 92.5 38.5t125.5 98t110 95.5 v-17q-61 -57 -119 -106.5t-115.5 -86t-95.5 -36.5q-24 0 -34.5 16t-10.5 33q0 38 30 85.5t83 92.5q61 54 84.5 86.5t-13.5 32.5q-47 0 -142 -63.5t-178 -134t-157 -138.5h-78z" />
<glyph unicode="o" horiz-adv-x="426" d="M-72 123q0 67 59 131t142.5 104.5t146.5 40.5q68 0 68 -63q0 -51 -49 -119q10 -4 22 -4q63 0 121 70v-17q-56 -67 -125 -67l-14 2t-16 2q-160 -166 -277 -166q-22 0 -40.5 11.5t-28 30.5t-9.5 44zM-37 88q0 -16 14.5 -26.5t36.5 -10.5q53 0 127.5 52.5t131.5 124 t57 112.5q0 20 -14.5 32.5t-36.5 12.5q-56 0 -128.5 -63.5t-130 -139.5t-57.5 -94z" />
<glyph unicode="p" horiz-adv-x="598" d="M-510 -403l840 950q-40 -38 -342 -305v16q47 40 213.5 190.5t191.5 178.5h51l-374 -451q89 71 144 112.5t116 76t102 34.5q37 0 37 -51q0 -44 -29.5 -85.5t-97.5 -94.5q-88 -68 -88 -94q0 -23 29 -23q51 0 327 232v-17q-102 -87 -197.5 -158t-131.5 -71q-48 3 -48 47 q0 69 127 184q82 74 82 97q0 20 -20 20q-28 0 -121 -59.5t-189 -137.5t-132 -120l-402 -471h-88z" />
<glyph unicode="q" horiz-adv-x="492" d="M-289 -403l490 555q-124 -115 -199 -115q-61 0 -61 94q0 65 54.5 128t135 101.5t152.5 38.5q53 0 53 -43q0 -21 -17 -59l101 102h39l-447 -546q35 31 115 101.5t139.5 122.5t147 128t90.5 78v-17q-262 -229 -488 -434q-32 -29 -74.5 -75.5t-144.5 -159.5h-86zM-33 80 q0 -13 9.5 -21t23.5 -8q39 0 117 57t141.5 129t63.5 113q0 13 -10 24t-25 11q-47 0 -124.5 -57.5t-136.5 -130t-59 -117.5z" />
<glyph unicode="r" d="M-12 242v16q45 36 89.5 73t88.5 70q-8 31 8 55.5t39 24.5q13 0 23 -7.5t10 -18.5q0 -13 -8.5 -21t-20.5 -8t-33 20q-6 -8 -6 -22q-1 -12 9.5 -22.5t23.5 -10.5q9 0 27 4q20 4 24 4q8 0 13.5 -15t5.5 -36q0 -18 -24.5 -47.5t-84.5 -96.5t-83 -95t-23 -43t20 -15 q28 0 119.5 65.5t212.5 166.5v-17q-269 -229 -340 -229q-27 0 -27 33q0 47 18.5 89t63.5 93l117 129q-21 -8 -47.5 -7t-32.5 15q-133 -110 -182 -147z" />
<glyph unicode="s" horiz-adv-x="426" d="M-90 96q0 25 14.5 40.5t42.5 15.5q18 0 29.5 -9.5t11.5 -25.5q0 -13 -12.5 -23t-26.5 -10q-19 0 -28 31q-13 -9 -13 -27q0 -11 20.5 -24t47.5 -13q53 0 112 45.5t98.5 114.5t39.5 133q0 46 -29 94l-229 -196v16l209 180q24 29 44 53.5t29 24.5q8 0 14.5 -4.5t6.5 -13.5 q0 -19 -55 -47q32 -48 46 -84t17 -91q-3 -34 -8 -57q17 -4 32 -4q17 -1 33 5q30 10 82 63v-17q-40 -50 -74 -62q-16 -6 -35 -6q-20 0 -44 7q-24 -54 -78 -92.5t-111 -57t-98 -18.5q-39 0 -63.5 15.5t-24.5 43.5z" />
<glyph unicode="t" horiz-adv-x="385" d="M-12 242v16q61 58 151 131.5t176 132.5h-73l14 17h74l166 188h86l-166 -188h127l-11 -17h-129l-243 -276q-40 -44 -88.5 -106t-48.5 -68q0 -21 22 -21q82 0 352 232v-17l-53 -47q-207 -182 -301 -182q-23 0 -36 13t-13 30q0 40 56.5 133t221.5 258q-102 -68 -284 -229z " />
<glyph unicode="u" horiz-adv-x="598" d="M-43 80q0 28 16.5 61.5t44 69.5t58.5 70.5t63 70.5l-51 -30q-69 -51 -100 -80v16q66 64 184 133h84l-223 -254q-56 -64 -56 -74t17 -10q55 0 180 97.5t277 240.5h79l-233 -266q-4 -5 -16.5 -19t-19 -25.5t-5.5 -19.5q0 -10 16 -10q37 0 139 66.5t199 165.5v-17 q-99 -99 -197.5 -164t-144.5 -65q-35 0 -35 35q0 33 30.5 83t94.5 128l19 22l-37 -33q-121 -108 -208.5 -171.5t-137.5 -63.5q-37 0 -37 43z" />
<glyph unicode="v" horiz-adv-x="512" d="M-12 242v16q18 16 47 40t61 48t60 38.5t47 14.5q15 0 24 -12t9 -33q0 -78 -127 -190q-76 -65 -76 -96q0 -17 30 -17q51 0 111.5 32.5t115 84t86.5 98t34 72.5q3 61 22 61t19 -26q0 -28 -22 -65.5t-69 -90.5q16 -10 35 -10q53 0 129 76v-17q-74 -71 -125 -71q-24 0 -47 12 q-77 -79 -147.5 -124.5t-151.5 -45.5q-20 0 -34.5 14.5t-14.5 36.5q0 45 31.5 89.5t105.5 101.5q80 58 80 92q0 14 -20 14q-29 0 -65.5 -26t-147.5 -117z" />
<glyph unicode="w" horiz-adv-x="768" d="M-12 76q0 75 145 237q28 28 45 52q-97 -44 -190 -123v16q55 44 102.5 77t112.5 56h84l-240 -276q-31 -39 -31 -47q0 -5 5 -11t10 -6q38 0 131 67.5t168 135.5q35 34 79 72t74 65h84l-262 -295q-12 -14 -12 -26q0 -19 20 -19q72 0 175 69t151 126q31 35 45 96q12 57 31 57 q14 0 14 -16q0 -73 -100 -172q16 -3 31 -3q24 0 46 9q36 15 74 66v-17q-32 -46 -70 -62q-23 -10 -53 -9q-20 0 -43 4q-174 -162 -307 -162q-41 0 -41 39q0 73 150 231q-151 -137 -246 -203.5t-150 -66.5q-32 0 -32 39z" />
<glyph unicode="x" horiz-adv-x="641" d="M-92 92q0 55 53 55q17 0 27 -9t10 -23q0 -11 -10 -21t-23 -10q-34 0 -37 33q-3 -14 -3 -24q0 -42 52 -42q34 0 62 14t53.5 36t51 52.5t30.5 36.5q82 97 103.5 123t21.5 45q0 27 -35 27q-66 0 -129.5 -37t-146.5 -106v16q80 70 144 105.5t130 35.5q55 0 55 -47 q0 -16 -8 -57q53 53 92.5 78.5t92.5 25.5q25 0 43 -14t18 -37q0 -49 -43 -51q-31 0 -31 31q0 12 8 19t19 7q16 0 29 -18q7 25 -6 37t-39 12q-33 0 -70.5 -25t-91.5 -86q-65 -72 -97 -116.5t-32 -71.5q0 -35 45 -35q76 0 179 62.5t228 169.5v-17q-72 -68 -148.5 -120.5 t-143.5 -80.5t-117 -28q-62 0 -62 53q0 32 21 88l-29 -26q-16 -15 -50 -46t-70 -50t-79 -19q-67 0 -67 55z" />
<glyph unicode="y" horiz-adv-x="662" d="M-375 -438q0 42 56.5 105.5t175.5 141t303 162.5q98 126 254 297q-106 -82 -140 -108t-81 -58.5t-83.5 -48.5t-64.5 -16q-17 0 -28 11t-11 30q0 33 13 63t41.5 60.5t76.5 66.5q86 64 86 99q0 18 -20 18q-34 0 -88 -41t-127 -102v16q80 69 131.5 105t89.5 36q31 0 31 -41 q0 -87 -119 -192q-86 -76 -86 -100q0 -15 18 -15q37 0 128.5 61.5t190 143t152.5 135.5h76l-321 -366q112 45 192.5 98.5t202.5 159.5v-17q-114 -105 -200 -161t-218 -105l-18 -20q-209 -234 -338 -355t-213 -121q-62 0 -62 58zM-360 -440q0 -18 12.5 -29.5t30.5 -11.5 q35 0 79 24.5t98.5 76.5t127.5 138q39 48 84.5 103.5t68.5 89.5q-210 -105 -355.5 -212t-145.5 -179z" />
<glyph unicode="z" horiz-adv-x="432" d="M-102 51q0 28 114 90l228 191q-47 -8 -68 -8q-45 0 -59 24l-125 -106v16l116 96q-6 26 10.5 45t41.5 19q28 0 28 -27q0 -13 -7 -21t-19 -8q-25 0 -35 13q-4 -14 10.5 -25.5t44.5 -11.5q72 0 103 24l34 29q50 43 70 43q14 0 14 -10q0 -49 -133 -84l-215 -182q53 16 90 16 q54 0 54 -43q0 -18 -23 -41q-9 -9 -10 -19t8 -10q20 0 106.5 70.5t167.5 151.5v-17q-234 -229 -303 -229q-14 0 -25.5 9.5t-11.5 27.5q0 24 33 53q19 11 23.5 22t-29.5 11q-49 0 -133 -51q-14 -15 -28 -32.5t-27.5 -28.5t-24.5 -11q-20 0 -20 14z" />
<glyph unicode="{" horiz-adv-x="748" d="M203 315v19q34 5 74.5 32t68 71.5t27.5 94.5q0 42 -17 150q-16 110 -16 123q0 123 65.5 213t167.5 112v-14q-50 -9 -88 -45t-56.5 -80.5t-18.5 -85.5q0 -11 2.5 -32t6 -48t9.5 -65q18 -108 18 -139q0 -120 -74 -197.5t-141 -97.5q38 -11 88.5 -47.5t88.5 -104t38 -160.5 q0 -34 -18 -137q-18 -128 -18 -135q0 -67 39 -126.5t124 -84.5v-14q-110 32 -171.5 124.5t-61.5 202.5q0 29 16 123q17 89 17 133q0 38 -17.5 77t-42 67t-55 48t-55.5 23z" />
<glyph unicode="|" horiz-adv-x="1004" d="M483 -403v1323h37v-1323h-37z" />
<glyph unicode="}" horiz-adv-x="748" d="M203 -469q85 26 124 84.5t39 126.5q0 7 -18 135q-18 103 -18 137q0 93 38 160.5t88.5 104t88.5 47.5q-67 20 -141 97.5t-74 197.5q0 31 18 139q18 137 18 145q0 41 -18.5 85.5t-56.5 80.5t-88 45v14q66 -13 119.5 -59.5t83.5 -115.5t30 -150q0 -13 -16 -123 q-17 -108 -17 -150q0 -50 27.5 -94.5t68 -71.5t74.5 -32v-19q-33 -5 -73.5 -37t-68.5 -80t-28 -98q0 -44 17 -133q16 -94 16 -123q0 -113 -61.5 -204t-171.5 -123v14z" />
<glyph unicode="~" horiz-adv-x="874" d="M117 242q5 60 24 94q19 31 49.5 47t61.5 16q30 0 64 -9.5t124 -47.5q97 -39 123.5 -47t54.5 -8q43 0 76.5 25.5t38.5 86.5h25q-2 -51 -20.5 -85t-52 -53t-73.5 -19q-22 0 -50 7.5t-97 35.5q-99 42 -139 55.5t-70 13.5q-95 0 -115 -112h-24z" />
<glyph unicode="&#xa1;" horiz-adv-x="330" d="M-180 -51q0 15 13 31.5t79 82.5q137 142 199.5 208.5t78.5 84.5l132 144h24l-141 -158q-119 -135 -252 -309q-59 -75 -75 -91t-32 -16q-26 0 -26 23zM365 557q0 15 14 28t27 13q7 0 10.5 -4.5t3.5 -13.5q0 -15 -13 -26t-26 -11q-16 0 -16 14z" />
<glyph unicode="&#xa2;" d="M-203 -154l172 205q-30 34 -30 82q0 96 94 174t227 90l148 170h16l-143 -170q19 0 38 -13t19 -32q0 -27 -19 -48t-43 -21q-32 0 -32 30q0 14 10.5 23.5t26.5 9.5q21 0 30 -20q11 14 11 24q0 12 -14 22t-40 11l-274 -326q24 -6 39 -6q50 0 102 24t101.5 60t110.5 88t71 60 v-17q-51 -44 -92 -79.5t-90 -70.5t-105.5 -57t-110.5 -22q-11 0 -38 6l-166 -197h-19zM-31 94q0 -12 11 -28l264 313q-33 -4 -101.5 -57.5t-121 -120t-52.5 -107.5z" />
<glyph unicode="&#xa3;" horiz-adv-x="1366" d="M0 41q0 29 39.5 47t105.5 18q60 0 120.5 -13t166.5 -44q91 38 172 113t137 149q-69 17 -116 17q-60 0 -106.5 -16t-98.5 -56l-8 12q71 53 137.5 79t161.5 26q41 0 71 -2l82 116q-98 -18 -174 -18q-139 0 -226 62.5t-87 162.5q0 102 80.5 204t226 167t332.5 65v-14 q-136 0 -253.5 -39.5t-195 -101t-119.5 -133t-42 -135.5q0 -103 79.5 -163.5t210.5 -60.5q77 0 178 23l25 33q64 86 134 172.5t166.5 184t202 166t200.5 68.5q39 0 61.5 -17.5t22.5 -49.5q0 -50 -54.5 -125.5t-154.5 -158t-234.5 -154.5t-279.5 -111q-15 -23 -103 -156 q92 -20 135 -20q85 0 172 51l9 -12q-64 -42 -131 -62t-144 -20q-26 0 -88 6q-143 -171 -344 -260q128 -43 254 -43q106 0 194 34.5t173 121.5l14 -9q-85 -86 -169.5 -123.5t-205.5 -37.5q-122 0 -283 45q-7 0 -22 -6q-116 -39 -254 -39q-170 0 -170 57zM18 43q0 -45 150 -45 q66 0 130 10t110 31q-128 34 -168.5 43.5t-94.5 9.5q-56 0 -91.5 -14t-35.5 -35zM973 532q141 38 268 107t226 152t151.5 155.5t52.5 114.5q0 55 -67 55q-100 0 -202 -73.5t-188 -174.5t-158 -210t-83 -126z" />
<glyph unicode="&#xa4;" horiz-adv-x="831" d="M139 74l74 76q-32 43 -47.5 78t-15.5 94q0 58 16.5 95t46.5 75l-74 73l31 33l74 -74q42 30 78 46t94 16q59 0 96 -16.5t76 -47.5l76 76l28 -33l-74 -73q62 -83 62 -173q0 -61 -16.5 -96.5t-45.5 -72.5l74 -76l-28 -31l-76 74q-21 -15 -44 -28.5t-56 -23.5t-76 -10 q-57 0 -87.5 14t-78.5 48l-76 -74zM195 322q0 -59 30 -110.5t80.5 -81.5t110.5 -30q92 0 155.5 65.5t63.5 156.5q0 59 -30 110t-81 80t-108 29t-108.5 -29t-82 -79.5t-30.5 -110.5z" />
<glyph unicode="&#xa5;" horiz-adv-x="918" d="M4 119q0 31 19 54.5t49 23.5q41 0 41 -33q0 -35 -31 -35q-13 0 -24.5 9.5t-10.5 27.5q-29 -14 -29 -43q0 -53 51 -89t128 -36q105 0 194.5 49.5t174 136t194.5 222.5q28 34 65 86l-55 -52q-76 -71 -170.5 -125.5t-171.5 -54.5q-78 0 -78 70q0 48 26.5 101t90.5 134h-238 l9 15h239l103 108q124 130 168.5 196t44.5 124q0 50 -39 79t-101 29q-106 0 -213 -50t-176 -127t-69 -153q0 -35 24.5 -57t65.5 -22q100 0 219.5 77t175.5 209l14 -2q-38 -90 -107.5 -158.5t-150 -104.5t-153.5 -36q-47 0 -75 25.5t-28 68.5q0 79 70 159t179 132.5t218 52.5 q77 0 121.5 -42t44.5 -115q0 -80 -43.5 -159t-153.5 -189l-45 -45h322l403 450h88l-399 -450h229l-8 -15h-233l-148 -166q-196 -220 -332.5 -317.5t-293.5 -97.5q-86 0 -140.5 37.5t-54.5 97.5zM367 317q0 -20 15.5 -31.5t41.5 -11.5q100 0 218 85t239 206h-324 q-5 -5 -42.5 -44.5t-73 -81.5t-55 -73t-19.5 -49z" />
<glyph unicode="&#xa6;" horiz-adv-x="1004" d="M479 193h43v-596h-43v596zM479 324v596h43v-596h-43z" />
<glyph unicode="&#xa7;" horiz-adv-x="981" d="M-106 -72q0 22 12.5 37t30.5 15q17 0 27.5 -10.5t10.5 -22.5q0 -13 -9 -22t-19 -9q-31 0 -31 -4q0 -24 40.5 -52t98.5 -28q78 0 148 51.5t114 141.5q23 46 43 122.5t29.5 142.5t22.5 183q11 112 28 198.5t51.5 161.5t95 119.5t154.5 44.5q69 0 117 -16q109 149 283 149 q74 0 123 -34.5t49 -87.5q0 -17 -13 -30t-28 -13q-31 0 -31 28q0 29 33 29q12 0 12 8q0 7 -11 26t-40 36.5t-84 17.5q-80 0 -150 -51t-114 -141q-38 -76 -57 -179.5t-39 -273.5q-22 -183 -55.5 -293.5t-101.5 -170.5t-183 -60q-49 0 -109 16q-112 -147 -272 -147 q-70 0 -123 31.5t-53 86.5zM356 -29q50 -12 72 -12q97 0 151.5 59t78 146t47.5 248l8 57q32 240 57 317q26 77 37 104.5t39 74.5q-48 10 -86 10q-43 0 -73 -11.5t-64 -45.5q-52 -52 -68.5 -112t-54.5 -278l-13 -71l-4 -33q-21 -178 -47.5 -267.5t-79.5 -185.5z" />
<glyph unicode="&#xa8;" horiz-adv-x="682" d="M457 643q0 24 15 44t32 20q33 0 33 -41q0 -26 -13.5 -45t-34.5 -19q-14 0 -23 12t-9 29zM616 643q0 24 16 44t32 20q32 0 32 -41q0 -25 -13.5 -44.5t-33.5 -19.5q-14 0 -23.5 11.5t-9.5 29.5z" />
<glyph unicode="&#xa9;" horiz-adv-x="854" d="M111 745q0 107 52 195t140 139t193 51q102 0 191.5 -51t141.5 -139.5t52 -194.5q0 -104 -51.5 -192.5t-139.5 -140.5t-194 -52q-77 0 -148 30t-124 83t-83 124t-30 148zM143 745q0 -96 47.5 -176.5t128.5 -128t177 -47.5t176.5 47.5t128 128t47.5 176.5q0 95 -48 177.5 t-128.5 129t-175.5 46.5q-96 0 -176.5 -46.5t-128.5 -129t-48 -177.5zM246 741q0 68 33.5 125.5t95 92t143.5 34.5q25 0 107 -22q4 0 7 -0.5t7 -1.5q11 0 16 6t11 18h20l10 -151h-20q-40 127 -164 127q-78 0 -127 -55t-49 -156q0 -75 32.5 -150.5t147.5 -75.5q106 0 170 89 l21 -11q-77 -108 -209 -108q-111 0 -181.5 70.5t-70.5 168.5z" />
<glyph unicode="&#xaa;" d="M88 459q0 40 30 80t82 67t111 27q29 0 38 -11.5t9 -35.5l35 43l76 4l-139 -164q-6 -7 -14 -16.5t-14 -18t-9 -15.5t2 -9q7 -1 40.5 17t83.5 53t109 83l4 -14l-26 -21q-93 -70 -143.5 -102.5t-77.5 -32.5q-43 0 -13 80q-35 -32 -55.5 -48t-38 -24t-37.5 -8q-21 0 -37 19 t-16 47zM123 436q0 -9 7 -18.5t17 -9.5q23 0 70.5 39t87 84.5t39.5 60.5q0 11 -10 18.5t-21 7.5q-20 -2 -52 -22t-61.5 -47t-53 -60.5t-23.5 -52.5z" />
<glyph unicode="&#xab;" horiz-adv-x="575" d="M51 268q183 45 352 164l11 -12q-107 -96 -269 -158q17 -29 30.5 -78.5t-11.5 -109.5l-14 4q2 61 -15.5 106.5t-83.5 83.5zM283 244q110 28 217 125l10 -13q-52 -55 -174 -125q13 -22 13 -60t-19 -77l-15 4q16 43 7 71.5t-39 74.5z" />
<glyph unicode="&#xac;" horiz-adv-x="874" d="M117 438v43h641v-336h-43v293h-598z" />
<glyph unicode="&#xad;" horiz-adv-x="362" d="M74 207l12 14h186l-12 -14h-186z" />
<glyph unicode="&#xae;" horiz-adv-x="854" d="M111 745q0 107 52 195t140 139t193 51q102 0 191.5 -51t141.5 -139.5t52 -194.5q0 -104 -51.5 -192.5t-139.5 -140.5t-194 -52q-77 0 -148 30t-124 83t-83 124t-30 148zM143 745q0 -96 47.5 -176.5t128.5 -128t177 -47.5t176.5 47.5t128 128t47.5 176.5q0 95 -48 177.5 t-128.5 129t-175.5 46.5q-96 0 -176.5 -46.5t-128.5 -129t-48 -177.5zM301 512v18q39 0 47.5 15t8.5 59v285q0 46 -7.5 60t-41.5 14v20h209q74 0 117.5 -34.5t43.5 -88.5q0 -86 -121 -121l115 -161q32 -48 66 -48v-18h-101l-159 221h-41v-170q0 -33 63 -33v-18h-199z M437 756q59 0 107 18t48 80q0 42 -30 73t-80 31q-21 0 -45 -8v-194z" />
<glyph unicode="&#xaf;" horiz-adv-x="1024" d="M-16 1284v102h1056v-102h-1056z" />
<glyph unicode="&#xb0;" horiz-adv-x="492" d="M135 557q0 77 54.5 130.5t132.5 53.5q50 0 91.5 -24.5t67 -66.5t25.5 -93q0 -75 -54.5 -130.5t-129.5 -55.5q-77 0 -132 55t-55 131zM186 557q0 -56 38.5 -95.5t94.5 -39.5q57 0 96.5 39.5t39.5 95.5t-40.5 94.5t-95.5 38.5t-94 -39t-39 -94z" />
<glyph unicode="&#xb1;" horiz-adv-x="874" d="M117 0v43h641v-43h-641zM117 418v43h299v299h43v-299h299v-43h-299v-299h-43v299h-299z" />
<glyph unicode="&#xb2;" d="M68 416q23 23 129 88q17 11 56.5 35.5t73.5 50t59.5 55.5t25.5 57t-29 27q-32 0 -93 -44.5t-61 -70.5q0 -16 15 -16q25 0 82 57l8 -10q-24 -29 -50 -45t-40 -16q-29 0 -29 30q0 23 32 53.5t75 53t69 22.5q33 0 44 -16t11 -47q0 -49 -40.5 -86t-139.5 -80 q-76 -31 -104 -51q12 4 28 4q8 0 43 -8t41 -8q15 0 30.5 9.5t41.5 33.5l10 -9q-60 -71 -114 -71q-4 0 -52 10t-63 10q-23 0 -41 -18h-18z" />
<glyph unicode="&#xb3;" d="M68 461q0 13 8 23t20 10q25 0 25 -23q0 -22 -21 -22q-10 0 -14 8q-8 -6 7.5 -17.5t37.5 -11.5q45 0 93.5 27t81 62t32.5 52q0 13 -16 13q-13 0 -58 -15l-4 11q123 47 158 67t35 49q0 35 -47 35q-44 0 -81.5 -21t-37.5 -40t18 -19q37 0 74 35l10 -10q-39 -39 -84 -39 q-14 0 -24.5 8t-10.5 21q0 29 46 54t106 25q76 0 76 -51q0 -35 -35 -55.5t-107 -42.5q25 -18 25 -45q0 -52 -72.5 -93.5t-163.5 -41.5q-77 0 -77 47z" />
<glyph unicode="&#xb4;" horiz-adv-x="682" d="M492 602q108 75 170 180h108q-80 -86 -252 -180h-26z" />
<glyph unicode="&#xb5;" horiz-adv-x="598" d="M-518 -432l506 602q29 48 102 127q11 13 24 28t21 25l-2 2q-80 -54 -143 -108v14q65 63 182 133h84l-223 -254q-56 -64 -56 -74q0 -12 19 -12q48 0 178.5 98.5t276.5 241.5h79l-262 -299q-12 -15 -12 -31q0 -12 16 -12q20 0 58 21q33 16 109.5 71.5t142.5 112.5 q4 4 7.5 7t6.5 5v-16l-31 -25q-97 -82 -175 -134t-122 -52q-37 0 -37 35q0 57 127 209l19 22l-37 -33q-261 -235 -346 -235q-25 0 -25 12l-399 -481h-88z" />
<glyph unicode="&#xb6;" horiz-adv-x="1087" d="M117 797q0 140 98 228.5t283 88.5h420v-43h-134v-1481h-41v1481h-178v-1481h-43v885q-405 0 -405 322z" />
<glyph unicode="&#xb8;" horiz-adv-x="682" d="M0 -68q115 0 115 58q0 13 -15 28l21 25h18l-18 -23q31 -4 31 -36q0 -66 -152 -66v14z" />
<glyph unicode="&#xb9;" d="M143 414l289 278l-59 -30q-110 -61 -191 -91l-6 13q58 20 148.5 66t160.5 93h17l-281 -329h-78z" />
<glyph unicode="&#xba;" horiz-adv-x="299" d="M82 446q0 41 31.5 83t83 70t108.5 28q49 0 49 -43q0 -30 -32 -82q26 1 42 9.5t52 35.5l4 -8q-39 -33 -60 -41t-51 -6q-29 -37 -76 -71t-98 -34q-18 0 -35.5 16.5t-17.5 42.5zM109 440q0 -18 6 -28.5t26 -10.5q36 0 82.5 33.5t81.5 77t35 68.5q0 32 -31 32q-36 0 -81 -35 t-82 -79.5t-37 -57.5z" />
<glyph unicode="&#xbb;" horiz-adv-x="575" d="M51 150q30 32 68.5 59.5t105.5 64.5q-12 21 -12.5 60t18.5 78l15 -4q-11 -29 -9 -53t9.5 -38.5t32.5 -54.5q-110 -28 -218 -125zM147 86q107 96 269 158q-3 7 -16 36t-17 68.5t14 83.5l15 -4q-2 -60 15 -105t83 -85q-183 -45 -352 -164z" />
<glyph unicode="&#xbc;" horiz-adv-x="618" d="M-29 98l805 543l12 -14l-806 -543zM145 76l244 235h90l-305 -231q35 6 55 6q44 0 80 -6l99 88l14 -10l-60 -76q11 0 68 14v-14q-32 -16 -80 -16l-65 -84l-86 2l92 82q-25 6 -62 6q-47 0 -79 -11zM270 414l289 278l-59 -30q-139 -72 -191 -91l-6 13q58 20 148.5 66 t160.5 93h17l-281 -329h-78z" />
<glyph unicode="&#xbd;" horiz-adv-x="618" d="M-29 98l805 543l12 -14l-806 -543zM125 -16q25 24 129 88q90 54 152.5 102t62.5 96q0 27 -29 27q-33 0 -93 -44.5t-60 -70.5q0 -16 14 -16q25 0 82 57l8 -10q-24 -29 -49 -45t-41 -16q-29 0 -29 30q0 22 32.5 52.5t75.5 53.5t69 23q33 0 44 -16t11 -47q0 -49 -40.5 -86 t-139.5 -80q-79 -34 -105 -51q12 4 29 4q10 0 44 -8.5t40 -8.5q25 0 71 43l11 -8q-60 -71 -115 -71q-2 0 -51 10t-64 10q-22 0 -41 -18h-18zM270 414l289 278l-59 -30q-139 -72 -191 -91l-6 13q58 20 148.5 66t160.5 93h17l-281 -329h-78z" />
<glyph unicode="&#xbe;" horiz-adv-x="618" d="M-29 98l805 543l12 -14l-806 -543zM145 76l244 235h90l-305 -231q35 6 55 6q44 0 80 -6l99 88l14 -10l-60 -76q11 0 68 14v-14q-32 -16 -80 -16l-65 -84l-86 2l92 82q-25 6 -62 6q-47 0 -79 -11zM184 461q0 13 9 23t20 10q25 0 25 -23q0 -22 -21 -22q-10 0 -14 8 q-8 -6 7.5 -17.5t37.5 -11.5q45 0 93.5 27t81 62t32.5 52q0 13 -17 13q-12 0 -57 -15l-4 11q123 47 157.5 67t34.5 49q0 35 -47 35q-42 0 -80.5 -21.5t-38.5 -39.5q0 -19 19 -19q37 0 74 35l10 -10q-39 -39 -84 -39q-14 0 -24.5 8t-10.5 21q0 29 46 54t106 25q75 0 75 -51 q0 -35 -35.5 -56t-105.5 -42q25 -19 25 -45q0 -52 -72.5 -93.5t-163.5 -41.5q-78 0 -78 47z" />
<glyph unicode="&#xbf;" horiz-adv-x="606" d="M-18 25q0 61 27 105t66.5 74.5t100.5 65.5q114 67 170.5 112.5t116.5 117.5h16q-38 -50 -82 -91t-135 -112q-115 -92 -186.5 -166.5t-71.5 -138.5q0 -51 68 -51q48 0 100.5 29t88.5 70.5t36 70.5q0 15 -10.5 24.5t-26.5 9.5q-43 0 -99.5 -39t-103.5 -98l-10 6 q48 66 106.5 106t106.5 40q22 0 36.5 -13.5t14.5 -35.5q0 -41 -38.5 -85.5t-96 -72t-108.5 -27.5q-86 0 -86 99zM506 561q0 11 13 27t28 16q16 0 16 -14q0 -15 -16 -30t-27 -15q-14 0 -14 16z" />
<glyph unicode="&#xc0;" horiz-adv-x="1386" d="M68 100q0 37 23 65t56 28q21 0 32 -11t11 -22q0 -31 -38 -31q-31 0 -37 33q-31 -26 -31 -66q0 -46 41 -72t117 -26q78 0 160.5 29t156.5 71t154 95q-78 86 -112 156t-34 157q0 92 48 161.5t143 69.5q105 0 176.5 -76.5t101.5 -199.5q201 177 324 280.5t232.5 184.5 t195 126t164.5 62l10 -8l-29 -27q-132 -124 -235.5 -231t-221 -239.5t-219 -258.5t-213.5 -276q47 0 110 29.5t127.5 78t117.5 101.5v-17q-60 -64 -165.5 -135.5t-197.5 -71.5l-41 -59h-92l53 70q-73 14 -121.5 39t-107.5 73q-87 -56 -161 -97.5t-157 -71t-165 -29.5 q-83 0 -129.5 31t-46.5 85zM582 522q0 -95 33 -166t112 -153q106 82 295 246q-19 104 -89 189t-173 85q-74 0 -113.5 -41.5t-52 -87.5t-12.5 -72zM739 193q61 -49 111 -74.5t117 -36.5q44 94 57 177t2 175q-41 -38 -129 -112t-158 -129zM1001 127q39 49 97 113t96 104.5 t122.5 131t248.5 267.5l26 29q42 45 163.5 161.5t162.5 153.5q-78 -15 -202 -95t-250 -181.5t-234.5 -197.5t-188.5 -167q12 -91 2.5 -163t-43.5 -156zM1872 1392h92q-5 -109 14 -182h-12q-71 91 -94 182z" />
<glyph unicode="&#xc1;" horiz-adv-x="1386" d="M68 100q0 37 23 65t56 28q21 0 32 -11t11 -22q0 -31 -38 -31q-31 0 -37 33q-31 -26 -31 -66q0 -46 41 -72t117 -26q78 0 160.5 29t156.5 71t154 95q-78 86 -112 156t-34 157q0 92 48 161.5t143 69.5q105 0 176.5 -76.5t101.5 -199.5q201 177 324 280.5t232.5 184.5 t195 126t164.5 62l10 -8l-29 -27q-132 -124 -235.5 -231t-221 -239.5t-219 -258.5t-213.5 -276q47 0 110 29.5t127.5 78t117.5 101.5v-17q-60 -64 -165.5 -135.5t-197.5 -71.5l-41 -59h-92l53 70q-73 14 -121.5 39t-107.5 73q-87 -56 -161 -97.5t-157 -71t-165 -29.5 q-83 0 -129.5 31t-46.5 85zM582 522q0 -95 33 -166t112 -153q106 82 295 246q-19 104 -89 189t-173 85q-74 0 -113.5 -41.5t-52 -87.5t-12.5 -72zM739 193q61 -49 111 -74.5t117 -36.5q44 94 57 177t2 175q-41 -38 -129 -112t-158 -129zM1001 127q39 49 97 113t96 104.5 t122.5 131t248.5 267.5l26 29q42 45 163.5 161.5t162.5 153.5q-78 -15 -202 -95t-250 -181.5t-234.5 -197.5t-188.5 -167q12 -91 2.5 -163t-43.5 -156zM1864 1210q108 75 170 180h108q-80 -86 -252 -180h-26z" />
<glyph unicode="&#xc2;" horiz-adv-x="1386" d="M68 100q0 37 23 65t56 28q21 0 32 -11t11 -22q0 -31 -38 -31q-31 0 -37 33q-31 -26 -31 -66q0 -46 41 -72t117 -26q78 0 160.5 29t156.5 71t154 95q-78 86 -112 156t-34 157q0 92 48 161.5t143 69.5q105 0 176.5 -76.5t101.5 -199.5q201 177 324 280.5t232.5 184.5 t195 126t164.5 62l10 -8l-29 -27q-132 -124 -235.5 -231t-221 -239.5t-219 -258.5t-213.5 -276q47 0 110 29.5t127.5 78t117.5 101.5v-17q-60 -64 -165.5 -135.5t-197.5 -71.5l-41 -59h-92l53 70q-73 14 -121.5 39t-107.5 73q-87 -56 -161 -97.5t-157 -71t-165 -29.5 q-83 0 -129.5 31t-46.5 85zM582 522q0 -95 33 -166t112 -153q106 82 295 246q-19 104 -89 189t-173 85q-74 0 -113.5 -41.5t-52 -87.5t-12.5 -72zM739 193q61 -49 111 -74.5t117 -36.5q44 94 57 177t2 175q-41 -38 -129 -112t-158 -129zM1001 127q39 49 97 113t96 104.5 t122.5 131t248.5 267.5l26 29q42 45 163.5 161.5t162.5 153.5q-78 -15 -202 -95t-250 -181.5t-234.5 -197.5t-188.5 -167q12 -91 2.5 -163t-43.5 -156zM1724 1210q210 104 307 182h66q-43 -113 -45 -182h-10q-22 79 -31 141q-74 -60 -260 -141h-27z" />
<glyph unicode="&#xc3;" horiz-adv-x="1386" d="M68 100q0 37 23 65t56 28q21 0 32 -11t11 -22q0 -31 -38 -31q-31 0 -37 33q-31 -26 -31 -66q0 -46 41 -72t117 -26q78 0 160.5 29t156.5 71t154 95q-78 86 -112 156t-34 157q0 92 48 161.5t143 69.5q105 0 176.5 -76.5t101.5 -199.5q201 177 324 280.5t232.5 184.5 t195 126t164.5 62l10 -8l-29 -27q-132 -124 -235.5 -231t-221 -239.5t-219 -258.5t-213.5 -276q47 0 110 29.5t127.5 78t117.5 101.5v-17q-60 -64 -165.5 -135.5t-197.5 -71.5l-41 -59h-92l53 70q-73 14 -121.5 39t-107.5 73q-87 -56 -161 -97.5t-157 -71t-165 -29.5 q-83 0 -129.5 31t-46.5 85zM582 522q0 -95 33 -166t112 -153q106 82 295 246q-19 104 -89 189t-173 85q-74 0 -113.5 -41.5t-52 -87.5t-12.5 -72zM739 193q61 -49 111 -74.5t117 -36.5q44 94 57 177t2 175q-41 -38 -129 -112t-158 -129zM1001 127q39 49 97 113t96 104.5 t122.5 131t248.5 267.5l26 29q42 45 163.5 161.5t162.5 153.5q-78 -15 -202 -95t-250 -181.5t-234.5 -197.5t-188.5 -167q12 -91 2.5 -163t-43.5 -156zM1616 1210q45 51 84 74q46 22 92 22q40 0 105 -26q55 -23 86 -23q44 0 92 47h20q-47 -53 -83 -73.5t-85 -20.5 q-38 0 -110 27q-47 19 -78 22q-34 0 -49.5 -7.5t-50.5 -41.5h-23z" />
<glyph unicode="&#xc4;" horiz-adv-x="1386" d="M68 100q0 37 23 65t56 28q21 0 32 -11t11 -22q0 -31 -38 -31q-31 0 -37 33q-31 -26 -31 -66q0 -46 41 -72t117 -26q78 0 160.5 29t156.5 71t154 95q-78 86 -112 156t-34 157q0 92 48 161.5t143 69.5q105 0 176.5 -76.5t101.5 -199.5q201 177 324 280.5t232.5 184.5 t195 126t164.5 62l10 -8l-29 -27q-132 -124 -235.5 -231t-221 -239.5t-219 -258.5t-213.5 -276q47 0 110 29.5t127.5 78t117.5 101.5v-17q-60 -64 -165.5 -135.5t-197.5 -71.5l-41 -59h-92l53 70q-73 14 -121.5 39t-107.5 73q-87 -56 -161 -97.5t-157 -71t-165 -29.5 q-83 0 -129.5 31t-46.5 85zM582 522q0 -95 33 -166t112 -153q106 82 295 246q-19 104 -89 189t-173 85q-74 0 -113.5 -41.5t-52 -87.5t-12.5 -72zM739 193q61 -49 111 -74.5t117 -36.5q44 94 57 177t2 175q-41 -38 -129 -112t-158 -129zM1001 127q39 49 97 113t96 104.5 t122.5 131t248.5 267.5l26 29q42 45 163.5 161.5t162.5 153.5q-78 -15 -202 -95t-250 -181.5t-234.5 -197.5t-188.5 -167q12 -91 2.5 -163t-43.5 -156zM1747 1251q0 24 15 44t32 20q33 0 33 -41q0 -26 -13.5 -45t-34.5 -19q-14 0 -23 12t-9 29zM1906 1251q0 24 16 44t32 20 q32 0 32 -41q0 -25 -13.5 -44.5t-33.5 -19.5q-14 0 -23.5 11.5t-9.5 29.5z" />
<glyph unicode="&#xc5;" horiz-adv-x="1386" d="M68 100q0 37 23 65t56 28q21 0 32 -11t11 -22q0 -31 -38 -31q-31 0 -37 33q-31 -26 -31 -66q0 -46 41 -72t117 -26q78 0 160.5 29t156.5 71t154 95q-78 86 -112 156t-34 157q0 92 48 161.5t143 69.5q105 0 176.5 -76.5t101.5 -199.5q201 177 324 280.5t232.5 184.5 t195 126t164.5 62l10 -8l-29 -27q-132 -124 -235.5 -231t-221 -239.5t-219 -258.5t-213.5 -276q47 0 110 29.5t127.5 78t117.5 101.5v-17q-60 -64 -165.5 -135.5t-197.5 -71.5l-41 -59h-92l53 70q-73 14 -121.5 39t-107.5 73q-87 -56 -161 -97.5t-157 -71t-165 -29.5 q-83 0 -129.5 31t-46.5 85zM582 522q0 -95 33 -166t112 -153q106 82 295 246q-19 104 -89 189t-173 85q-74 0 -113.5 -41.5t-52 -87.5t-12.5 -72zM739 193q61 -49 111 -74.5t117 -36.5q44 94 57 177t2 175q-41 -38 -129 -112t-158 -129zM1001 127q39 49 97 113t96 104.5 t122.5 131t248.5 267.5l26 29q42 45 163.5 161.5t162.5 153.5q-78 -15 -202 -95t-250 -181.5t-234.5 -197.5t-188.5 -167q12 -91 2.5 -163t-43.5 -156zM1815 1306q0 39 28 67t66 28q41 0 68.5 -27.5t27.5 -67.5q0 -38 -28 -67t-66 -29t-67 29t-29 67zM1831 1306 q0 -34 24 -58t56 -24q36 0 58 23t22 57q0 20 -10 39.5t-27 31t-41 11.5q-34 0 -58 -23t-24 -57z" />
<glyph unicode="&#xc6;" horiz-adv-x="1067" d="M59 186q0 105 97 266.5t256 317.5t350 258t377 102q103 0 157 -35t54 -104q0 -116 -148 -166q-57 -155 -200.5 -346.5t-272.5 -298.5q-127 -103 -240 -149q49 -33 105 -33q110 0 226 77.5t259 207.5v-17q-288 -282 -483 -282q-72 0 -129 36q-121 -36 -203 -36 q-98 0 -151.5 54.5t-53.5 147.5zM115 133q0 -63 40 -99t111 -36t183 35q-72 65 -72 172q0 85 52 169.5t147.5 151.5t226.5 107q-4 48 -4 49q0 91 50.5 170t124.5 124.5t138 45.5q52 0 77 -26t28 -85q-2 -16 -3 -24.5t-2.5 -20t-3.5 -22.5q56 16 90.5 58t34.5 91 q0 37 -23.5 65.5t-66.5 43t-104 14.5q-108 0 -219 -42.5t-200.5 -103.5t-148.5 -118q-114 -114 -218 -246t-171 -258t-67 -215zM434 143q0 -60 37 -100q84 34 162.5 85t161.5 134q52 52 127 141.5t148 199.5t112 218q-69 -13 -125 -4l2 12q73 -7 129 7q10 39 12 77 q-3 88 -72 88q-52 0 -124 -58.5t-124.5 -144t-56.5 -161.5q34 9 69 3.5t58 -24t23 -47.5q0 -25 -17 -41t-45 -16q-37 0 -63 25t-43 77q-69 -27 -135.5 -79.5t-120 -119.5t-84.5 -138.5t-31 -133.5zM823 623q20 -97 92 -97q17 0 30 11.5t13 27.5q0 41 -45 56t-90 2z" />
<glyph unicode="&#xc7;" horiz-adv-x="938" d="M66 752q0 52 32 116t110.5 123.5t218.5 99t349 39.5v-14q-218 0 -361 -42.5t-213 -102t-96 -118.5t-26 -105q0 -93 74.5 -148t240.5 -45q83 89 200 190.5t242.5 188.5t242.5 141.5t204 54.5q76 0 76 -71q0 -76 -122 -175.5t-320 -186.5t-420 -136q-97 -107 -155 -185.5 t-86 -140t-28 -112.5q0 -50 46.5 -87.5t121.5 -37.5q91 0 196.5 51t178 128t72.5 153q0 54 -31 81t-88 27q-76 0 -180.5 -68.5t-204.5 -254.5l-14 10q91 172 197 250t204 78q65 0 98 -34t33 -87q0 -75 -69.5 -158t-184 -137.5t-239.5 -54.5l-39 -56q38 -11 64 -28.5 t26 -59.5q0 -125 -238 -125h-59l2 17q113 -5 168 18q38 16 58 43t20 55q0 33 -12 44t-52 32l49 66q-68 7 -113.5 53.5t-45.5 134.5q0 85 42 167t148 200q-173 -11 -245 51t-72 158zM510 575q161 39 317 101t271 130.5t180 135t65 119.5q0 55 -61 55q-101 0 -238.5 -82 t-275 -203.5t-258.5 -255.5z" />
<glyph unicode="&#xc8;" horiz-adv-x="885" d="M63 207q0 78 44 153.5t119 136t177 104.5t213 63l-4 30q-88 -12 -145 -12q-129 0 -205 47.5t-76 134.5q0 48 38 108t150 109t316 49v-14q-148 0 -248 -29t-150.5 -71.5t-68.5 -83.5t-18 -76q0 -59 61.5 -109.5t204.5 -50.5q44 0 139 15q2 72 21 120.5t67 104.5 q75 83 188 138.5t206 55.5q42 0 65 -17t23 -46q0 -47 -46 -106.5t-122.5 -114t-171 -94t-201.5 -54.5l-4 -32q69 8 112.5 -11t43.5 -59q0 -27 -20.5 -41t-47.5 -14q-81 0 -105 110q-130 -24 -227.5 -89.5t-156 -144.5t-87 -153.5t-28.5 -120.5q0 -145 170 -145 q108 0 218.5 52t181.5 133.5t71 162.5q0 46 -31.5 72t-85.5 26q-68 0 -142 -35.5t-134 -99.5q-37 -37 -60 -75t-53 -107h-14q35 82 58.5 119.5t61.5 77.5q135 133 287 133q59 0 93 -29t34 -80q0 -90 -73 -174.5t-186.5 -137t-219.5 -52.5q-117 0 -174.5 59t-57.5 164z M637 653q7 -48 26.5 -73t63.5 -25q20 0 34.5 11.5t14.5 29.5q0 29 -37 45.5t-102 11.5zM641 717q137 21 258 84t193.5 137.5t72.5 126.5q0 24 -20 36.5t-58 12.5q-73 0 -164.5 -51t-168.5 -141.5t-113 -204.5zM1073 1392h92q-5 -109 14 -182h-12q-71 91 -94 182z" />
<glyph unicode="&#xc9;" horiz-adv-x="885" d="M63 207q0 78 44 153.5t119 136t177 104.5t213 63l-4 30q-88 -12 -145 -12q-129 0 -205 47.5t-76 134.5q0 48 38 108t150 109t316 49v-14q-148 0 -248 -29t-150.5 -71.5t-68.5 -83.5t-18 -76q0 -59 61.5 -109.5t204.5 -50.5q44 0 139 15q2 72 21 120.5t67 104.5 q75 83 188 138.5t206 55.5q42 0 65 -17t23 -46q0 -47 -46 -106.5t-122.5 -114t-171 -94t-201.5 -54.5l-4 -32q69 8 112.5 -11t43.5 -59q0 -27 -20.5 -41t-47.5 -14q-81 0 -105 110q-130 -24 -227.5 -89.5t-156 -144.5t-87 -153.5t-28.5 -120.5q0 -145 170 -145 q108 0 218.5 52t181.5 133.5t71 162.5q0 46 -31.5 72t-85.5 26q-68 0 -142 -35.5t-134 -99.5q-37 -37 -60 -75t-53 -107h-14q35 82 58.5 119.5t61.5 77.5q135 133 287 133q59 0 93 -29t34 -80q0 -90 -73 -174.5t-186.5 -137t-219.5 -52.5q-117 0 -174.5 59t-57.5 164z M637 653q7 -48 26.5 -73t63.5 -25q20 0 34.5 11.5t14.5 29.5q0 29 -37 45.5t-102 11.5zM641 717q137 21 258 84t193.5 137.5t72.5 126.5q0 24 -20 36.5t-58 12.5q-73 0 -164.5 -51t-168.5 -141.5t-113 -204.5zM1035 1210q108 75 170 180h108q-80 -86 -252 -180h-26z" />
<glyph unicode="&#xca;" horiz-adv-x="885" d="M63 207q0 78 44 153.5t119 136t177 104.5t213 63l-4 30q-88 -12 -145 -12q-129 0 -205 47.5t-76 134.5q0 48 38 108t150 109t316 49v-14q-148 0 -248 -29t-150.5 -71.5t-68.5 -83.5t-18 -76q0 -59 61.5 -109.5t204.5 -50.5q44 0 139 15q2 72 21 120.5t67 104.5 q75 83 188 138.5t206 55.5q42 0 65 -17t23 -46q0 -47 -46 -106.5t-122.5 -114t-171 -94t-201.5 -54.5l-4 -32q69 8 112.5 -11t43.5 -59q0 -27 -20.5 -41t-47.5 -14q-81 0 -105 110q-130 -24 -227.5 -89.5t-156 -144.5t-87 -153.5t-28.5 -120.5q0 -145 170 -145 q108 0 218.5 52t181.5 133.5t71 162.5q0 46 -31.5 72t-85.5 26q-68 0 -142 -35.5t-134 -99.5q-37 -37 -60 -75t-53 -107h-14q35 82 58.5 119.5t61.5 77.5q135 133 287 133q59 0 93 -29t34 -80q0 -90 -73 -174.5t-186.5 -137t-219.5 -52.5q-117 0 -174.5 59t-57.5 164z M637 653q7 -48 26.5 -73t63.5 -25q20 0 34.5 11.5t14.5 29.5q0 29 -37 45.5t-102 11.5zM641 717q137 21 258 84t193.5 137.5t72.5 126.5q0 24 -20 36.5t-58 12.5q-73 0 -164.5 -51t-168.5 -141.5t-113 -204.5zM895 1210q210 104 307 182h66q-43 -113 -45 -182h-10 q-22 79 -31 141q-74 -60 -260 -141h-27z" />
<glyph unicode="&#xcb;" horiz-adv-x="885" d="M63 207q0 78 44 153.5t119 136t177 104.5t213 63l-4 30q-88 -12 -145 -12q-129 0 -205 47.5t-76 134.5q0 48 38 108t150 109t316 49v-14q-148 0 -248 -29t-150.5 -71.5t-68.5 -83.5t-18 -76q0 -59 61.5 -109.5t204.5 -50.5q44 0 139 15q2 72 21 120.5t67 104.5 q75 83 188 138.5t206 55.5q42 0 65 -17t23 -46q0 -47 -46 -106.5t-122.5 -114t-171 -94t-201.5 -54.5l-4 -32q69 8 112.5 -11t43.5 -59q0 -27 -20.5 -41t-47.5 -14q-81 0 -105 110q-130 -24 -227.5 -89.5t-156 -144.5t-87 -153.5t-28.5 -120.5q0 -145 170 -145 q108 0 218.5 52t181.5 133.5t71 162.5q0 46 -31.5 72t-85.5 26q-68 0 -142 -35.5t-134 -99.5q-37 -37 -60 -75t-53 -107h-14q35 82 58.5 119.5t61.5 77.5q135 133 287 133q59 0 93 -29t34 -80q0 -90 -73 -174.5t-186.5 -137t-219.5 -52.5q-117 0 -174.5 59t-57.5 164z M637 653q7 -48 26.5 -73t63.5 -25q20 0 34.5 11.5t14.5 29.5q0 29 -37 45.5t-102 11.5zM641 717q137 21 258 84t193.5 137.5t72.5 126.5q0 24 -20 36.5t-58 12.5q-73 0 -164.5 -51t-168.5 -141.5t-113 -204.5zM959 1251q0 24 15 44t32 20q33 0 33 -41q0 -26 -13.5 -45 t-34.5 -19q-14 0 -23 12t-9 29zM1118 1251q0 24 16 44t32 20q32 0 32 -41q0 -25 -13.5 -44.5t-33.5 -19.5q-14 0 -23.5 11.5t-9.5 29.5z" />
<glyph unicode="&#xcc;" horiz-adv-x="961" d="M37 113q0 34 19 55.5t48 21.5q21 0 33.5 -10.5t12.5 -29.5q0 -39 -46 -39q-30 0 -38 36q-11 -14 -11 -36q0 -56 58.5 -84.5t128.5 -28.5q122 0 227 54t185.5 138.5t149 189t95.5 146.5q-64 15 -100.5 57.5t-36.5 106.5q0 53 39.5 126t136 145.5t266.5 120.5t422 48v-10 q-143 -62 -251.5 -140t-181 -157t-117.5 -149.5t-87 -147.5q241 3 289 283h14q-40 -299 -315 -299q-48 -96 -122 -188.5t-172.5 -170t-211 -122.5t-233.5 -45q-88 0 -144.5 35.5t-56.5 93.5zM805 674q0 -113 104 -133q139 184 246 287.5t200.5 163.5t229.5 126 q-202 -3 -353 -51t-245 -120t-138 -146t-44 -127zM1438 1392h92q-5 -109 14 -182h-12q-71 91 -94 182z" />
<glyph unicode="&#xcd;" horiz-adv-x="961" d="M37 113q0 34 19 55.5t48 21.5q21 0 33.5 -10.5t12.5 -29.5q0 -39 -46 -39q-30 0 -38 36q-11 -14 -11 -36q0 -56 58.5 -84.5t128.5 -28.5q122 0 227 54t185.5 138.5t149 189t95.5 146.5q-64 15 -100.5 57.5t-36.5 106.5q0 53 39.5 126t136 145.5t266.5 120.5t422 48v-10 q-143 -62 -251.5 -140t-181 -157t-117.5 -149.5t-87 -147.5q241 3 289 283h14q-40 -299 -315 -299q-48 -96 -122 -188.5t-172.5 -170t-211 -122.5t-233.5 -45q-88 0 -144.5 35.5t-56.5 93.5zM805 674q0 -113 104 -133q139 184 246 287.5t200.5 163.5t229.5 126 q-202 -3 -353 -51t-245 -120t-138 -146t-44 -127zM1389 1210q108 75 170 180h108q-80 -86 -252 -180h-26z" />
<glyph unicode="&#xce;" horiz-adv-x="961" d="M37 113q0 34 19 55.5t48 21.5q21 0 33.5 -10.5t12.5 -29.5q0 -39 -46 -39q-30 0 -38 36q-11 -14 -11 -36q0 -56 58.5 -84.5t128.5 -28.5q122 0 227 54t185.5 138.5t149 189t95.5 146.5q-64 15 -100.5 57.5t-36.5 106.5q0 53 39.5 126t136 145.5t266.5 120.5t422 48v-10 q-143 -62 -251.5 -140t-181 -157t-117.5 -149.5t-87 -147.5q241 3 289 283h14q-40 -299 -315 -299q-48 -96 -122 -188.5t-172.5 -170t-211 -122.5t-233.5 -45q-88 0 -144.5 35.5t-56.5 93.5zM805 674q0 -113 104 -133q139 184 246 287.5t200.5 163.5t229.5 126 q-202 -3 -353 -51t-245 -120t-138 -146t-44 -127zM1290 1210q210 104 307 182h66q-43 -113 -45 -182h-10q-22 79 -31 141q-74 -60 -260 -141h-27z" />
<glyph unicode="&#xcf;" horiz-adv-x="961" d="M37 113q0 34 19 55.5t48 21.5q21 0 33.5 -10.5t12.5 -29.5q0 -39 -46 -39q-30 0 -38 36q-11 -14 -11 -36q0 -56 58.5 -84.5t128.5 -28.5q122 0 227 54t185.5 138.5t149 189t95.5 146.5q-64 15 -100.5 57.5t-36.5 106.5q0 53 39.5 126t136 145.5t266.5 120.5t422 48v-10 q-143 -62 -251.5 -140t-181 -157t-117.5 -149.5t-87 -147.5q241 3 289 283h14q-40 -299 -315 -299q-48 -96 -122 -188.5t-172.5 -170t-211 -122.5t-233.5 -45q-88 0 -144.5 35.5t-56.5 93.5zM805 674q0 -113 104 -133q139 184 246 287.5t200.5 163.5t229.5 126 q-202 -3 -353 -51t-245 -120t-138 -146t-44 -127zM1334 1251q0 24 15 44t32 20q33 0 33 -41q0 -26 -13.5 -45t-34.5 -19q-14 0 -23 12t-9 29zM1493 1251q0 24 16 44t32 20q32 0 32 -41q0 -25 -13.5 -44.5t-33.5 -19.5q-14 0 -23.5 11.5t-9.5 29.5z" />
<glyph unicode="&#xd0;" horiz-adv-x="1386" d="M33 35q0 29 35.5 45t97.5 16q70 0 130.5 -14.5t145.5 -48.5q131 29 226 94.5t158.5 143.5t129.5 178h-145l6 14h152q114 169 222 289.5t189 187.5q-52 92 -129 134t-194 42q-141 0 -268.5 -59t-220 -150.5t-144 -189.5t-51.5 -168q0 -58 34.5 -91.5t92.5 -33.5 q71 0 157.5 46.5t163 123.5t125.5 178t49 197h15q0 -103 -47 -202t-125 -181t-166.5 -129t-167.5 -47q-156 0 -156 161q0 103 58 204t160 182t228 127t257 46q126 0 206 -42.5t136 -139.5q65 59 202 121l7 -10q-103 -53 -203 -125q20 -51 25.5 -83t5.5 -79 q0 -102 -54 -237.5t-156.5 -262t-247 -207.5t-317.5 -81q-122 0 -213 32q-123 -32 -252 -32q-157 0 -157 51zM47 35q0 -37 123 -37q135 0 248 29q-83 29 -136 42t-114 13q-54 0 -87.5 -13t-33.5 -34zM469 25q103 -27 186 -27q167 0 309 80.5t242.5 205.5t154.5 259t54 233 q0 72 -29 148q-66 -50 -156.5 -182.5t-170.5 -276.5h125l-6 -16h-129q-74 -107 -142 -177t-134.5 -114t-135.5 -71.5t-168 -61.5z" />
<glyph unicode="&#xd1;" horiz-adv-x="1237" d="M27 86q0 34 20 57t49 23q39 0 39 -37t-39 -37q-31 0 -39 35q-16 -22 -16 -47q0 -35 38.5 -58.5t96.5 -23.5q63 0 120.5 19t119 59.5t127 100t145.5 147.5q91 99 223.5 258t192.5 241l102 142l34.5 47t43.5 61q36 57 49 57q8 0 8 -8q0 -5 -10 -18q-131 -159 -160 -316 l-43 -233q-10 -59 -30.5 -129.5t-50.5 -163.5l188 254q204 278 334 408q98 98 201 152t196 54q156 0 156 -94q0 -26 -15 -43.5t-34 -17.5q-10 0 -18.5 9.5t-8.5 21.5q0 14 8 22t21 8q6 0 14.5 -5t13.5 -9q4 0 4 14q0 82 -139 82q-113 0 -244.5 -88.5t-273.5 -257.5 q-48 -57 -120.5 -151.5t-151.5 -206t-154 -219.5q-85 -123 -121 -167t-65 -44q-11 0 -11 6q0 11 29 30q63 43 101.5 110.5t52.5 180.5l4 33q20 162 52 265t85 233q19 44 25 55l-15 -16l-18 -25q-79 -105 -167.5 -217.5t-151 -185t-135.5 -151t-116 -120.5q-51 -49 -96 -84 t-91 -59.5t-98 -39.5t-106 -15q-74 0 -114.5 26.5t-40.5 75.5zM1460 1210q45 51 84 74q46 22 92 22q40 0 105 -26q55 -23 86 -23q44 0 92 47h20q-47 -53 -83 -73.5t-85 -20.5q-38 0 -110 27q-47 19 -78 22q-34 0 -49.5 -7.5t-50.5 -41.5h-23z" />
<glyph unicode="&#xd2;" horiz-adv-x="897" d="M47 168q0 104 52 215.5t157 232t256 242.5q170 135 322.5 203.5t289.5 68.5q86 0 135.5 -35.5t49.5 -97.5q0 -69 -44 -109.5t-128 -62.5l2 15q78 18 116.5 60.5t38.5 96.5q0 57 -47 88t-129 31q-148 0 -306 -77.5t-296 -219.5q-81 -83 -157 -179t-139 -194.5 t-100.5 -181.5t-37.5 -139q0 -52 35.5 -89.5t97.5 -37.5q124 0 274.5 100.5t289 255.5t225 309.5t86.5 249.5q0 50 -24.5 79.5t-68.5 29.5q-51 0 -129 -31.5t-156 -90t-151 -149.5t-117 -202h-12q48 120 123 214t156.5 153.5t157 88.5t126.5 29q50 0 79.5 -32.5t29.5 -88.5 q0 -97 -86 -254t-224 -314t-291 -259t-282 -102q-77 0 -125.5 46t-48.5 138zM1039 1392h92q-5 -109 14 -182h-12q-71 91 -94 182z" />
<glyph unicode="&#xd3;" horiz-adv-x="897" d="M47 168q0 104 52 215.5t157 232t256 242.5q170 135 322.5 203.5t289.5 68.5q86 0 135.5 -35.5t49.5 -97.5q0 -69 -44 -109.5t-128 -62.5l2 15q78 18 116.5 60.5t38.5 96.5q0 57 -47 88t-129 31q-148 0 -306 -77.5t-296 -219.5q-81 -83 -157 -179t-139 -194.5 t-100.5 -181.5t-37.5 -139q0 -52 35.5 -89.5t97.5 -37.5q124 0 274.5 100.5t289 255.5t225 309.5t86.5 249.5q0 50 -24.5 79.5t-68.5 29.5q-51 0 -129 -31.5t-156 -90t-151 -149.5t-117 -202h-12q48 120 123 214t156.5 153.5t157 88.5t126.5 29q50 0 79.5 -32.5t29.5 -88.5 q0 -97 -86 -254t-224 -314t-291 -259t-282 -102q-77 0 -125.5 46t-48.5 138zM1084 1210q108 75 170 180h108q-80 -86 -252 -180h-26z" />
<glyph unicode="&#xd4;" horiz-adv-x="897" d="M47 168q0 104 52 215.5t157 232t256 242.5q170 135 322.5 203.5t289.5 68.5q86 0 135.5 -35.5t49.5 -97.5q0 -69 -44 -109.5t-128 -62.5l2 15q78 18 116.5 60.5t38.5 96.5q0 57 -47 88t-129 31q-148 0 -306 -77.5t-296 -219.5q-81 -83 -157 -179t-139 -194.5 t-100.5 -181.5t-37.5 -139q0 -52 35.5 -89.5t97.5 -37.5q124 0 274.5 100.5t289 255.5t225 309.5t86.5 249.5q0 50 -24.5 79.5t-68.5 29.5q-51 0 -129 -31.5t-156 -90t-151 -149.5t-117 -202h-12q48 120 123 214t156.5 153.5t157 88.5t126.5 29q50 0 79.5 -32.5t29.5 -88.5 q0 -97 -86 -254t-224 -314t-291 -259t-282 -102q-77 0 -125.5 46t-48.5 138zM946 1210q210 104 307 182h66q-43 -113 -45 -182h-10q-22 79 -31 141q-74 -60 -260 -141h-27z" />
<glyph unicode="&#xd5;" horiz-adv-x="897" d="M47 168q0 104 52 215.5t157 232t256 242.5q170 135 322.5 203.5t289.5 68.5q86 0 135.5 -35.5t49.5 -97.5q0 -69 -44 -109.5t-128 -62.5l2 15q78 18 116.5 60.5t38.5 96.5q0 57 -47 88t-129 31q-148 0 -306 -77.5t-296 -219.5q-81 -83 -157 -179t-139 -194.5 t-100.5 -181.5t-37.5 -139q0 -52 35.5 -89.5t97.5 -37.5q124 0 274.5 100.5t289 255.5t225 309.5t86.5 249.5q0 50 -24.5 79.5t-68.5 29.5q-51 0 -129 -31.5t-156 -90t-151 -149.5t-117 -202h-12q48 120 123 214t156.5 153.5t157 88.5t126.5 29q50 0 79.5 -32.5t29.5 -88.5 q0 -97 -86 -254t-224 -314t-291 -259t-282 -102q-77 0 -125.5 46t-48.5 138zM868 1210q45 51 84 74q46 22 92 22q40 0 105 -26q55 -23 86 -23q44 0 92 47h20q-47 -53 -83 -73.5t-85 -20.5q-38 0 -110 27q-47 19 -78 22q-34 0 -49.5 -7.5t-50.5 -41.5h-23z" />
<glyph unicode="&#xd6;" horiz-adv-x="897" d="M47 168q0 104 52 215.5t157 232t256 242.5q170 135 322.5 203.5t289.5 68.5q86 0 135.5 -35.5t49.5 -97.5q0 -69 -44 -109.5t-128 -62.5l2 15q78 18 116.5 60.5t38.5 96.5q0 57 -47 88t-129 31q-148 0 -306 -77.5t-296 -219.5q-81 -83 -157 -179t-139 -194.5 t-100.5 -181.5t-37.5 -139q0 -52 35.5 -89.5t97.5 -37.5q124 0 274.5 100.5t289 255.5t225 309.5t86.5 249.5q0 50 -24.5 79.5t-68.5 29.5q-51 0 -129 -31.5t-156 -90t-151 -149.5t-117 -202h-12q48 120 123 214t156.5 153.5t157 88.5t126.5 29q50 0 79.5 -32.5t29.5 -88.5 q0 -97 -86 -254t-224 -314t-291 -259t-282 -102q-77 0 -125.5 46t-48.5 138zM996 1251q0 24 15 44t32 20q33 0 33 -41q0 -26 -13.5 -45t-34.5 -19q-14 0 -23 12t-9 29zM1155 1251q0 24 16 44t32 20q32 0 32 -41q0 -25 -13.5 -44.5t-33.5 -19.5q-14 0 -23.5 11.5t-9.5 29.5z " />
<glyph unicode="&#xd7;" horiz-adv-x="874" d="M145 59l263 260l-263 263l31 30l262 -262l260 262l31 -30l-262 -263l262 -260l-31 -30l-260 262l-262 -262z" />
<glyph unicode="&#xd8;" horiz-adv-x="897" d="M4 98l47 35q-4 25 -4 60q0 107 102.5 267.5t267.5 314.5t354.5 254.5t358.5 100.5q115 0 162 -69l21 16l8 -12l-21 -16q13 -22 13 -58q0 -63 -43.5 -109.5t-126.5 -62.5v12q76 18 115.5 63t39.5 97q0 27 -8 47l-184 -135q13 -80 -73.5 -235.5t-228.5 -313t-300.5 -264 t-282.5 -106.5q-69 0 -108.5 30.5t-57.5 100.5l-43 -29zM80 139q-1 -69 36 -106t97 -37q126 0 280.5 104t295.5 261.5t226.5 307t76.5 222.5zM84 160l1006 749q-7 50 -26.5 78.5t-68.5 28.5q-59 0 -135 -31.5t-156.5 -93t-149 -149.5t-112.5 -197l-16 -2q45 117 118.5 209.5 t158.5 155t161.5 92.5t126.5 30q95 0 113 -110l176 131q-48 65 -162 65q-131 0 -294 -86t-317.5 -229.5t-267.5 -312t-155 -328.5z" />
<glyph unicode="&#xd9;" horiz-adv-x="897" d="M45 33q0 55 33.5 113.5t101.5 136.5l463 528q113 130 113 205q0 45 -37.5 72.5t-116.5 27.5q-123 0 -236 -59.5t-182 -145.5t-71 -153q-1 -36 26 -58t66 -22q64 0 146 39t158 118.5t124 192.5h14q-26 -76 -72 -139.5t-109 -116t-128.5 -80.5t-128.5 -28q-111 0 -111 90 q0 77 70.5 166.5t189.5 149.5t252 60q162 0 162 -129q0 -149 -117 -284l-481 -547q-56 -65 -77 -93.5t-21 -45.5q0 -33 43 -33q92 0 233 99t273 225t184 186l463 524h92l-838 -954q-26 -31 -26 -53q0 -27 30 -27q52 0 142.5 73t236.5 212v-17q-149 -143 -235.5 -212.5 t-149.5 -69.5q-18 0 -31.5 13.5t-13.5 35.5q0 97 144 262q15 19 19 22t9 7q-140 -129 -244.5 -205.5t-172 -105.5t-121.5 -29q-40 0 -54 19t-14 30zM1039 1392h92q-5 -109 14 -182h-12q-71 91 -94 182z" />
<glyph unicode="&#xda;" horiz-adv-x="897" d="M45 33q0 55 33.5 113.5t101.5 136.5l463 528q113 130 113 205q0 45 -37.5 72.5t-116.5 27.5q-123 0 -236 -59.5t-182 -145.5t-71 -153q-1 -36 26 -58t66 -22q64 0 146 39t158 118.5t124 192.5h14q-26 -76 -72 -139.5t-109 -116t-128.5 -80.5t-128.5 -28q-111 0 -111 90 q0 77 70.5 166.5t189.5 149.5t252 60q162 0 162 -129q0 -149 -117 -284l-481 -547q-56 -65 -77 -93.5t-21 -45.5q0 -33 43 -33q92 0 233 99t273 225t184 186l463 524h92l-838 -954q-26 -31 -26 -53q0 -27 30 -27q52 0 142.5 73t236.5 212v-17q-149 -143 -235.5 -212.5 t-149.5 -69.5q-18 0 -31.5 13.5t-13.5 35.5q0 97 144 262q15 19 19 22t9 7q-140 -129 -244.5 -205.5t-172 -105.5t-121.5 -29q-40 0 -54 19t-14 30zM1061 1210q108 75 170 180h108q-80 -86 -252 -180h-26z" />
<glyph unicode="&#xdb;" horiz-adv-x="897" d="M45 33q0 55 33.5 113.5t101.5 136.5l463 528q113 130 113 205q0 45 -37.5 72.5t-116.5 27.5q-123 0 -236 -59.5t-182 -145.5t-71 -153q-1 -36 26 -58t66 -22q64 0 146 39t158 118.5t124 192.5h14q-26 -76 -72 -139.5t-109 -116t-128.5 -80.5t-128.5 -28q-111 0 -111 90 q0 77 70.5 166.5t189.5 149.5t252 60q162 0 162 -129q0 -149 -117 -284l-481 -547q-56 -65 -77 -93.5t-21 -45.5q0 -33 43 -33q92 0 233 99t273 225t184 186l463 524h92l-838 -954q-26 -31 -26 -53q0 -27 30 -27q52 0 142.5 73t236.5 212v-17q-149 -143 -235.5 -212.5 t-149.5 -69.5q-18 0 -31.5 13.5t-13.5 35.5q0 97 144 262q15 19 19 22t9 7q-140 -129 -244.5 -205.5t-172 -105.5t-121.5 -29q-40 0 -54 19t-14 30zM942 1210q210 104 307 182h66q-43 -113 -45 -182h-10q-22 79 -31 141q-74 -60 -260 -141h-27z" />
<glyph unicode="&#xdc;" horiz-adv-x="897" d="M45 33q0 55 33.5 113.5t101.5 136.5l463 528q113 130 113 205q0 45 -37.5 72.5t-116.5 27.5q-123 0 -236 -59.5t-182 -145.5t-71 -153q-1 -36 26 -58t66 -22q64 0 146 39t158 118.5t124 192.5h14q-26 -76 -72 -139.5t-109 -116t-128.5 -80.5t-128.5 -28q-111 0 -111 90 q0 77 70.5 166.5t189.5 149.5t252 60q162 0 162 -129q0 -149 -117 -284l-481 -547q-56 -65 -77 -93.5t-21 -45.5q0 -33 43 -33q92 0 233 99t273 225t184 186l463 524h92l-838 -954q-26 -31 -26 -53q0 -27 30 -27q52 0 142.5 73t236.5 212v-17q-149 -143 -235.5 -212.5 t-149.5 -69.5q-18 0 -31.5 13.5t-13.5 35.5q0 97 144 262q15 19 19 22t9 7q-140 -129 -244.5 -205.5t-172 -105.5t-121.5 -29q-40 0 -54 19t-14 30zM975 1251q0 24 15 44t32 20q33 0 33 -41q0 -26 -13.5 -45t-34.5 -19q-14 0 -23 12t-9 29zM1134 1251q0 24 16 44t32 20 q32 0 32 -41q0 -25 -13.5 -44.5t-33.5 -19.5q-14 0 -23.5 11.5t-9.5 29.5z" />
<glyph unicode="&#xdd;" horiz-adv-x="918" d="M66 119q0 36 18 57t51 21q37 0 37 -33q0 -31 -33 -31q-25 0 -35 35q-10 -3 -17 -18t-7 -31q0 -54 51 -87.5t127 -33.5q99 0 187.5 44t162 115.5t146.5 164.5t133 170q-113 -127 -220 -179.5t-175 -52.5q-80 0 -80 70q0 58 47 139.5t217 251.5q97 97 137.5 163t40.5 122 q0 50 -40 80t-103 30q-116 0 -222 -54.5t-169.5 -132.5t-63.5 -141q0 -38 25 -59.5t65 -21.5q92 0 176.5 44.5t144 114t74.5 127.5l15 -2q-15 -65 -78 -136.5t-153.5 -117t-180.5 -45.5q-38 0 -70 21.5t-32 72.5q0 77 69 158t176.5 133.5t212.5 52.5q174 0 174 -157 q0 -49 -17.5 -97.5t-55 -101.5t-105.5 -127l-39 -43l-41 -41q-105 -109 -147.5 -161t-42.5 -80q0 -19 16 -33.5t45 -14.5q75 0 160.5 47t159 112t119.5 118l434 481h86l-559 -633q-129 -146 -225 -233t-195.5 -134.5t-208.5 -47.5q-56 0 -100 16.5t-68 47.5t-24 71z M1137 1210q108 75 170 180h108q-80 -86 -252 -180h-26z" />
<glyph unicode="&#xde;" horiz-adv-x="1153" d="M61 109q0 34 21.5 57.5t50.5 23.5q43 0 43 -43t-39 -43q-36 0 -47 46q-14 -9 -14 -39q0 -47 51 -78t127 -31q164 0 295 78t220 181.5t189 250.5l39 57q56 83 111 154t115 141q-77 33 -144 33q-144 0 -277.5 -53.5t-238.5 -139.5t-166 -177.5t-61 -159.5q0 -48 30.5 -82.5 t77.5 -34.5q67 0 142.5 33t149.5 98t135 157t96 210h16q-34 -118 -94.5 -212t-135 -160t-155 -103t-147.5 -37q-61 0 -95 36t-34 88q0 106 108.5 237t281.5 221.5t357 90.5q86 0 168 -30q113 108 187 159.5t180 94.5v-15q-90 -35 -168.5 -93.5t-171.5 -158.5 q108 -65 108 -184q0 -95 -43 -162.5t-100.5 -102t-95.5 -34.5q-28 0 -46 16t-18 43q0 132 201 193l4 -14q-100 -24 -145.5 -77.5t-45.5 -97.5q0 -20 14.5 -34.5t35.5 -14.5q38 0 88 44t86 114t36 143q0 100 -94 152q-57 -69 -137 -209l-27 -47q-83 -147 -136 -226t-109 -135 q-72 -72 -170.5 -128t-206.5 -88.5t-207 -32.5q-85 0 -140 35t-55 90z" />
<glyph unicode="&#xdf;" horiz-adv-x="897" d="M-461 -410l895 1006l-448 -354v16q57 45 155.5 123.5t160.5 129t129.5 108.5t96.5 86q140 134 204.5 191.5t119.5 89.5t104 32q68 0 91.5 -35.5t23.5 -101.5q0 -111 -79 -200.5t-214 -133.5q23 -50 23 -96q0 -108 -79 -204.5t-193 -153t-203 -56.5q-101 0 -101 90 q0 77 90 150t203 104l4 -12q-127 -46 -189.5 -98t-76.5 -87t-14 -57q0 -31 21.5 -51.5t58.5 -20.5q60 0 136.5 46t148.5 119t117.5 151.5t45.5 136.5q0 14 -8 37q-48 -10 -70 -10q-78 0 -78 40q0 35 54 35q25 0 55.5 -14.5t44.5 -32.5q62 26 126 90.5t104 141.5t40 133 q0 76 -69 76q-41 0 -87 -30.5t-83.5 -68t-77.5 -82.5q-84 -92 -223 -248.5t-260.5 -293t-312.5 -352t-302 -339.5h-84zM629 571q0 -22 55 -22q44 0 66 10q-10 16 -35 26.5t-45 10.5q-41 0 -41 -25z" />
<glyph unicode="&#xe0;" horiz-adv-x="532" d="M-66 129q0 51 30 100.5t80.5 87.5t113 60t121.5 22q29 0 42.5 -10.5t14.5 -34.5q-1 -5 -1.5 -9.5t-2 -12.5t-2.5 -13l63 74l84 6l-26 -32q-32 -38 -52 -62.5t-34 -40.5q-156 -169 -156 -198q0 -15 14 -15q19 0 57 22.5t85.5 59.5t108.5 87.5t71 58.5v-17l-51 -43 q-120 -100 -177.5 -141t-101.5 -41q-29 0 -29 33q0 35 27 98q-143 -131 -211 -131q-30 0 -49 23.5t-19 68.5zM-35 86q0 -15 10 -25t25 -10q41 0 118 57t139 129t62 113q0 35 -38 35q-60 0 -133.5 -59t-128 -134t-54.5 -106zM344 784h92q-5 -109 14 -182h-12q-71 91 -94 182z " />
<glyph unicode="&#xe1;" horiz-adv-x="532" d="M-66 129q0 51 30 100.5t80.5 87.5t113 60t121.5 22q29 0 42.5 -10.5t14.5 -34.5q-1 -5 -1.5 -9.5t-2 -12.5t-2.5 -13l63 74l84 6l-26 -32q-32 -38 -52 -62.5t-34 -40.5q-156 -169 -156 -198q0 -15 14 -15q19 0 57 22.5t85.5 59.5t108.5 87.5t71 58.5v-17l-51 -43 q-120 -100 -177.5 -141t-101.5 -41q-29 0 -29 33q0 35 27 98q-143 -131 -211 -131q-30 0 -49 23.5t-19 68.5zM-35 86q0 -15 10 -25t25 -10q41 0 118 57t139 129t62 113q0 35 -38 35q-60 0 -133.5 -59t-128 -134t-54.5 -106zM336 602q108 75 170 180h108q-80 -86 -252 -180 h-26z" />
<glyph unicode="&#xe2;" horiz-adv-x="532" d="M-66 129q0 51 30 100.5t80.5 87.5t113 60t121.5 22q29 0 42.5 -10.5t14.5 -34.5q-1 -5 -1.5 -9.5t-2 -12.5t-2.5 -13l63 74l84 6l-26 -32q-32 -38 -52 -62.5t-34 -40.5q-156 -169 -156 -198q0 -15 14 -15q19 0 57 22.5t85.5 59.5t108.5 87.5t71 58.5v-17l-51 -43 q-120 -100 -177.5 -141t-101.5 -41q-29 0 -29 33q0 35 27 98q-143 -131 -211 -131q-30 0 -49 23.5t-19 68.5zM-35 86q0 -15 10 -25t25 -10q41 0 118 57t139 129t62 113q0 35 -38 35q-60 0 -133.5 -59t-128 -134t-54.5 -106zM196 602q210 104 307 182h66q-43 -113 -45 -182 h-10q-22 79 -31 141q-74 -60 -260 -141h-27z" />
<glyph unicode="&#xe3;" horiz-adv-x="532" d="M-66 129q0 51 30 100.5t80.5 87.5t113 60t121.5 22q29 0 42.5 -10.5t14.5 -34.5q-1 -5 -1.5 -9.5t-2 -12.5t-2.5 -13l63 74l84 6l-26 -32q-32 -38 -52 -62.5t-34 -40.5q-156 -169 -156 -198q0 -15 14 -15q19 0 57 22.5t85.5 59.5t108.5 87.5t71 58.5v-17l-51 -43 q-120 -100 -177.5 -141t-101.5 -41q-29 0 -29 33q0 35 27 98q-143 -131 -211 -131q-30 0 -49 23.5t-19 68.5zM-35 86q0 -15 10 -25t25 -10q41 0 118 57t139 129t62 113q0 35 -38 35q-60 0 -133.5 -59t-128 -134t-54.5 -106zM162 602q45 51 84 74q46 22 92 22q40 0 105 -26 q55 -23 86 -23q44 0 92 47h20q-47 -53 -83 -73.5t-85 -20.5q-38 0 -110 27q-47 19 -78 22q-34 0 -49.5 -7.5t-50.5 -41.5h-23z" />
<glyph unicode="&#xe4;" horiz-adv-x="532" d="M-66 129q0 51 30 100.5t80.5 87.5t113 60t121.5 22q29 0 42.5 -10.5t14.5 -34.5q-1 -5 -1.5 -9.5t-2 -12.5t-2.5 -13l63 74l84 6l-26 -32q-32 -38 -52 -62.5t-34 -40.5q-156 -169 -156 -198q0 -15 14 -15q19 0 57 22.5t85.5 59.5t108.5 87.5t71 58.5v-17l-51 -43 q-120 -100 -177.5 -141t-101.5 -41q-29 0 -29 33q0 35 27 98q-143 -131 -211 -131q-30 0 -49 23.5t-19 68.5zM-35 86q0 -15 10 -25t25 -10q41 0 118 57t139 129t62 113q0 35 -38 35q-60 0 -133.5 -59t-128 -134t-54.5 -106zM301 643q0 24 15 44t32 20q33 0 33 -41 q0 -26 -13.5 -45t-34.5 -19q-14 0 -23 12t-9 29zM460 643q0 24 16 44t32 20q32 0 32 -41q0 -25 -13.5 -44.5t-33.5 -19.5q-14 0 -23.5 11.5t-9.5 29.5z" />
<glyph unicode="&#xe5;" horiz-adv-x="532" d="M-66 129q0 51 30 100.5t80.5 87.5t113 60t121.5 22q29 0 42.5 -10.5t14.5 -34.5q-1 -5 -1.5 -9.5t-2 -12.5t-2.5 -13l63 74l84 6l-26 -32q-32 -38 -52 -62.5t-34 -40.5q-156 -169 -156 -198q0 -15 14 -15q19 0 57 22.5t85.5 59.5t108.5 87.5t71 58.5v-17l-51 -43 q-120 -100 -177.5 -141t-101.5 -41q-29 0 -29 33q0 35 27 98q-143 -131 -211 -131q-30 0 -49 23.5t-19 68.5zM-35 86q0 -15 10 -25t25 -10q41 0 118 57t139 129t62 113q0 35 -38 35q-60 0 -133.5 -59t-128 -134t-54.5 -106zM293 698q0 39 28 67t66 28q41 0 68.5 -27.5 t27.5 -67.5q0 -38 -28 -67t-66 -29t-67 29t-29 67zM309 698q0 -34 24 -58t56 -24q36 0 58 23t22 57q0 20 -10 39.5t-27 31t-41 11.5q-34 0 -58 -23t-24 -57z" />
<glyph unicode="&#xe6;" horiz-adv-x="705" d="M-63 129q0 67 51.5 130t134 101.5t164.5 38.5q41 0 58 -19.5t3 -57.5l60 69h84l-27 -33q78 41 117 41q21 0 37 -13.5t16 -33.5q0 -32 -34.5 -62t-98.5 -48.5t-158 -20.5q-78 -89 -78 -133q0 -37 58 -37q155 0 395 232v-17q-239 -229 -397 -229q-117 0 -84 137 q-76 -76 -128.5 -106.5t-101.5 -30.5q-34 0 -52.5 27t-18.5 65zM-25 92q0 -15 12 -28t27 -13q53 0 128.5 59.5t134.5 134.5t59 105q0 15 -11.5 25t-31.5 10q-59 0 -133 -55t-129.5 -127.5t-55.5 -110.5zM360 238q99 0 176.5 38.5t77.5 81.5q0 12 -9.5 19.5t-22.5 7.5 q-47 0 -109 -41t-113 -106z" />
<glyph unicode="&#xe7;" d="M-125 -74q44 0 79.5 12t35.5 33q0 13 -5 18t-18 11l27 37q-27 9 -39 26t-12 72q0 48 30.5 97t80.5 86.5t110 59t117 21.5q26 0 42.5 -13t16.5 -36q0 -26 -20.5 -46.5t-45.5 -20.5q-30 0 -30 26q0 39 35 39q20 0 24 -18q4 -6 8 -6q5 0 10 8t5 18q0 16 -11 25.5t-30 9.5 q-53 0 -128.5 -57t-130.5 -130t-55 -114q0 -33 49 -33q91 0 177 56t221 176v-17q-99 -99 -175 -149.5t-128 -65t-103 -14.5l-16 -23q31 -4 31 -37q0 -65 -152 -65v14z" />
<glyph unicode="&#xe8;" d="M-59 133q0 80 60.5 140.5t142 93t132.5 32.5q29 0 45.5 -13.5t16.5 -35.5q0 -34 -37 -62.5t-103 -47t-155 -21.5q-76 -86 -76 -131q0 -16 16.5 -26.5t41.5 -10.5q161 0 393 232v-17q-112 -112 -205 -170.5t-188 -58.5q-84 0 -84 96zM63 238q83 0 140 21t86.5 50t29.5 47 q0 29 -34 29q-45 0 -105 -39.5t-117 -107.5zM281 784h92q-5 -109 14 -182h-12q-71 91 -94 182z" />
<glyph unicode="&#xe9;" d="M-59 133q0 80 60.5 140.5t142 93t132.5 32.5q29 0 45.5 -13.5t16.5 -35.5q0 -34 -37 -62.5t-103 -47t-155 -21.5q-76 -86 -76 -131q0 -16 16.5 -26.5t41.5 -10.5q161 0 393 232v-17q-112 -112 -205 -170.5t-188 -58.5q-84 0 -84 96zM63 238q83 0 140 21t86.5 50t29.5 47 q0 29 -34 29q-45 0 -105 -39.5t-117 -107.5zM273 602q108 75 170 180h108q-80 -86 -252 -180h-26z" />
<glyph unicode="&#xea;" d="M-59 133q0 80 60.5 140.5t142 93t132.5 32.5q29 0 45.5 -13.5t16.5 -35.5q0 -34 -37 -62.5t-103 -47t-155 -21.5q-76 -86 -76 -131q0 -16 16.5 -26.5t41.5 -10.5q161 0 393 232v-17q-112 -112 -205 -170.5t-188 -58.5q-84 0 -84 96zM63 238q83 0 140 21t86.5 50t29.5 47 q0 29 -34 29q-45 0 -105 -39.5t-117 -107.5zM133 602q210 104 307 182h66q-43 -113 -45 -182h-10q-22 79 -31 141q-74 -60 -260 -141h-27z" />
<glyph unicode="&#xeb;" d="M-59 133q0 80 60.5 140.5t142 93t132.5 32.5q29 0 45.5 -13.5t16.5 -35.5q0 -34 -37 -62.5t-103 -47t-155 -21.5q-76 -86 -76 -131q0 -16 16.5 -26.5t41.5 -10.5q161 0 393 232v-17q-112 -112 -205 -170.5t-188 -58.5q-84 0 -84 96zM63 238q83 0 140 21t86.5 50t29.5 47 q0 29 -34 29q-45 0 -105 -39.5t-117 -107.5zM238 643q0 24 15 44t32 20q33 0 33 -41q0 -26 -13.5 -45t-34.5 -19q-14 0 -23 12t-9 29zM397 643q0 24 16 44t32 20q32 0 32 -41q0 -25 -13.5 -44.5t-33.5 -19.5q-14 0 -23.5 11.5t-9.5 29.5z" />
<glyph unicode="&#xec;" horiz-adv-x="319" d="M-35 72q0 104 162 266q9 9 16.5 17.5t14.5 15.5q-90 -54 -168 -127l-2 16q76 69 178 131h90l-236 -264q-25 -28 -32 -52t12 -24q50 0 149 74t183 156v-17q-97 -93 -187 -160t-147 -67q-33 0 -33 35zM258 784h92q-5 -109 14 -182h-12q-71 91 -94 182z" />
<glyph unicode="&#xed;" horiz-adv-x="319" d="M-35 72q0 104 162 266q9 9 16.5 17.5t14.5 15.5q-90 -54 -168 -127l-2 16q76 69 178 131h90l-236 -264q-25 -28 -32 -52t12 -24q50 0 149 74t183 156v-17q-97 -93 -187 -160t-147 -67q-33 0 -33 35zM230 602q108 75 170 180h108q-80 -86 -252 -180h-26z" />
<glyph unicode="&#xee;" horiz-adv-x="319" d="M-35 72q0 104 162 266q9 9 16.5 17.5t14.5 15.5q-90 -54 -168 -127l-2 16q76 69 178 131h90l-236 -264q-25 -28 -32 -52t12 -24q50 0 149 74t183 156v-17q-97 -93 -187 -160t-147 -67q-33 0 -33 35zM90 602q210 104 307 182h66q-43 -113 -45 -182h-10q-22 79 -31 141 q-74 -60 -260 -141h-27z" />
<glyph unicode="&#xef;" horiz-adv-x="319" d="M-35 72q0 104 162 266q9 9 16.5 17.5t14.5 15.5q-90 -54 -168 -127l-2 16q76 69 178 131h90l-236 -264q-25 -28 -32 -52t12 -24q50 0 149 74t183 156v-17q-97 -93 -187 -160t-147 -67q-33 0 -33 35zM195 643q0 24 15 44t32 20q33 0 33 -41q0 -26 -13.5 -45t-34.5 -19 q-14 0 -23 12t-9 29zM354 643q0 24 16 44t32 20q32 0 32 -41q0 -25 -13.5 -44.5t-33.5 -19.5q-14 0 -23.5 11.5t-9.5 29.5z" />
<glyph unicode="&#xf0;" horiz-adv-x="532" d="M-72 123q0 68 59 131t142.5 104t142.5 41q33 0 52 -16t21.5 -40.5t-9.5 -53.5q85 108 122 160.5t65.5 117t60.5 174.5l-99 -30v16l105 33l39 160h16l-35 -152l127 45v-16l-129 -45q-45 -183 -124 -321t-169 -225t-171 -128t-134 -41q-37 0 -59.5 23.5t-22.5 62.5zM-35 92 q0 -41 49 -41q32 0 84.5 30t106.5 77.5t89.5 96.5t35.5 85q0 20 -14.5 32.5t-36.5 12.5q-41 0 -116 -59.5t-136.5 -131t-61.5 -102.5z" />
<glyph unicode="&#xf1;" horiz-adv-x="662" d="M-72 47l133 150q146 163 146 178q0 10 -12 10q-44 0 -209 -143v16q152 141 213 141q34 0 34 -43q0 -34 -21 -67t-85 -115q124 103 215 164t156 61q34 0 34 -47q0 -46 -32 -91.5t-105 -98.5q-78 -59 -78 -84q0 -10 9.5 -18.5t19.5 -8.5q35 0 92.5 38.5t125.5 98t110 95.5 v-17q-61 -57 -119 -106.5t-115.5 -86t-95.5 -36.5q-24 0 -34.5 16t-10.5 33q0 38 30 85.5t83 92.5q61 54 84.5 86.5t-13.5 32.5q-47 0 -142 -63.5t-178 -134t-157 -138.5h-78zM246 602q45 51 84 74q46 22 92 22q40 0 105 -26q55 -23 86 -23q44 0 92 47h20q-47 -53 -83 -73.5 t-85 -20.5q-38 0 -110 27q-47 19 -78 22q-34 0 -49.5 -7.5t-50.5 -41.5h-23z" />
<glyph unicode="&#xf2;" horiz-adv-x="426" d="M-72 123q0 67 59 131t142.5 104.5t146.5 40.5q68 0 68 -63q0 -51 -49 -119q10 -4 22 -4q63 0 121 70v-17q-56 -67 -125 -67l-14 2t-16 2q-160 -166 -277 -166q-22 0 -40.5 11.5t-28 30.5t-9.5 44zM-37 88q0 -16 14.5 -26.5t36.5 -10.5q53 0 127.5 52.5t131.5 124 t57 112.5q0 20 -14.5 32.5t-36.5 12.5q-56 0 -128.5 -63.5t-130 -139.5t-57.5 -94zM291 784h92q-5 -109 14 -182h-12q-71 91 -94 182z" />
<glyph unicode="&#xf3;" horiz-adv-x="426" d="M-72 123q0 67 59 131t142.5 104.5t146.5 40.5q68 0 68 -63q0 -51 -49 -119q10 -4 22 -4q63 0 121 70v-17q-56 -67 -125 -67l-14 2t-16 2q-160 -166 -277 -166q-22 0 -40.5 11.5t-28 30.5t-9.5 44zM-37 88q0 -16 14.5 -26.5t36.5 -10.5q53 0 127.5 52.5t131.5 124 t57 112.5q0 20 -14.5 32.5t-36.5 12.5q-56 0 -128.5 -63.5t-130 -139.5t-57.5 -94zM283 602q108 75 170 180h108q-80 -86 -252 -180h-26z" />
<glyph unicode="&#xf4;" horiz-adv-x="426" d="M-72 123q0 67 59 131t142.5 104.5t146.5 40.5q68 0 68 -63q0 -51 -49 -119q10 -4 22 -4q63 0 121 70v-17q-56 -67 -125 -67l-14 2t-16 2q-160 -166 -277 -166q-22 0 -40.5 11.5t-28 30.5t-9.5 44zM-37 88q0 -16 14.5 -26.5t36.5 -10.5q53 0 127.5 52.5t131.5 124 t57 112.5q0 20 -14.5 32.5t-36.5 12.5q-56 0 -128.5 -63.5t-130 -139.5t-57.5 -94zM143 602q210 104 307 182h66q-43 -113 -45 -182h-10q-22 79 -31 141q-74 -60 -260 -141h-27z" />
<glyph unicode="&#xf5;" horiz-adv-x="426" d="M-72 123q0 67 59 131t142.5 104.5t146.5 40.5q68 0 68 -63q0 -51 -49 -119q10 -4 22 -4q63 0 121 70v-17q-56 -67 -125 -67l-14 2t-16 2q-160 -166 -277 -166q-22 0 -40.5 11.5t-28 30.5t-9.5 44zM-37 88q0 -16 14.5 -26.5t36.5 -10.5q53 0 127.5 52.5t131.5 124 t57 112.5q0 20 -14.5 32.5t-36.5 12.5q-56 0 -128.5 -63.5t-130 -139.5t-57.5 -94zM109 602q45 51 84 74q46 22 92 22q40 0 105 -26q55 -23 86 -23q44 0 92 47h20q-47 -53 -83 -73.5t-85 -20.5q-38 0 -110 27q-47 19 -78 22q-34 0 -49.5 -7.5t-50.5 -41.5h-23z" />
<glyph unicode="&#xf6;" horiz-adv-x="426" d="M-72 123q0 67 59 131t142.5 104.5t146.5 40.5q68 0 68 -63q0 -51 -49 -119q10 -4 22 -4q63 0 121 70v-17q-56 -67 -125 -67l-14 2t-16 2q-160 -166 -277 -166q-22 0 -40.5 11.5t-28 30.5t-9.5 44zM-37 88q0 -16 14.5 -26.5t36.5 -10.5q53 0 127.5 52.5t131.5 124 t57 112.5q0 20 -14.5 32.5t-36.5 12.5q-56 0 -128.5 -63.5t-130 -139.5t-57.5 -94zM228 643q0 24 15 44t32 20q33 0 33 -41q0 -26 -13.5 -45t-34.5 -19q-14 0 -23 12t-9 29zM387 643q0 24 16 44t32 20q32 0 32 -41q0 -25 -13.5 -44.5t-33.5 -19.5q-14 0 -23.5 11.5 t-9.5 29.5z" />
<glyph unicode="&#xf7;" horiz-adv-x="874" d="M117 299v43h641v-43h-641zM406 113q0 13 9.5 21.5t22.5 8.5t22 -8t9 -22q0 -33 -31 -33q-12 0 -22 10t-10 23zM406 528q0 33 32 33q13 0 22 -9t9 -24q0 -30 -31 -30q-12 0 -22 10t-10 20z" />
<glyph unicode="&#xf8;" horiz-adv-x="426" d="M-100 27l47 36q-19 32 -19 62q0 64 59.5 128t144 105t149.5 41q43 0 57 -34l43 32l6 -8l-45 -37q9 -72 -59 -151q32 -14 67.5 7t87.5 75v-17q-90 -117 -168 -80q-155 -149 -262 -149q-30 0 -51 16l-45 -37zM-37 76l359 278q-1 12 -12 21.5t-27 9.5q-35 0 -115.5 -56 t-142.5 -128t-62 -125zM-29 63q23 -12 43 -12q43 0 119.5 50t136 119t58.5 122z" />
<glyph unicode="&#xf9;" horiz-adv-x="598" d="M-43 80q0 28 16.5 61.5t44 69.5t58.5 70.5t63 70.5l-51 -30q-69 -51 -100 -80v16q66 64 184 133h84l-223 -254q-56 -64 -56 -74t17 -10q55 0 180 97.5t277 240.5h79l-233 -266q-4 -5 -16.5 -19t-19 -25.5t-5.5 -19.5q0 -10 16 -10q37 0 139 66.5t199 165.5v-17 q-99 -99 -197.5 -164t-144.5 -65q-35 0 -35 35q0 33 30.5 83t94.5 128l19 22l-37 -33q-121 -108 -208.5 -171.5t-137.5 -63.5q-37 0 -37 43zM377 784h92q-5 -109 14 -182h-12q-71 91 -94 182z" />
<glyph unicode="&#xfa;" horiz-adv-x="598" d="M-43 80q0 28 16.5 61.5t44 69.5t58.5 70.5t63 70.5l-51 -30q-69 -51 -100 -80v16q66 64 184 133h84l-223 -254q-56 -64 -56 -74t17 -10q55 0 180 97.5t277 240.5h79l-233 -266q-4 -5 -16.5 -19t-19 -25.5t-5.5 -19.5q0 -10 16 -10q37 0 139 66.5t199 165.5v-17 q-99 -99 -197.5 -164t-144.5 -65q-35 0 -35 35q0 33 30.5 83t94.5 128l19 22l-37 -33q-121 -108 -208.5 -171.5t-137.5 -63.5q-37 0 -37 43zM369 602q108 75 170 180h108q-80 -86 -252 -180h-26z" />
<glyph unicode="&#xfb;" horiz-adv-x="598" d="M-43 80q0 28 16.5 61.5t44 69.5t58.5 70.5t63 70.5l-51 -30q-69 -51 -100 -80v16q66 64 184 133h84l-223 -254q-56 -64 -56 -74t17 -10q55 0 180 97.5t277 240.5h79l-233 -266q-4 -5 -16.5 -19t-19 -25.5t-5.5 -19.5q0 -10 16 -10q37 0 139 66.5t199 165.5v-17 q-99 -99 -197.5 -164t-144.5 -65q-35 0 -35 35q0 33 30.5 83t94.5 128l19 22l-37 -33q-121 -108 -208.5 -171.5t-137.5 -63.5q-37 0 -37 43zM270 602q210 104 307 182h66q-43 -113 -45 -182h-10q-22 79 -31 141q-74 -60 -260 -141h-27z" />
<glyph unicode="&#xfc;" horiz-adv-x="598" d="M-43 80q0 28 16.5 61.5t44 69.5t58.5 70.5t63 70.5l-51 -30q-69 -51 -100 -80v16q66 64 184 133h84l-223 -254q-56 -64 -56 -74t17 -10q55 0 180 97.5t277 240.5h79l-233 -266q-4 -5 -16.5 -19t-19 -25.5t-5.5 -19.5q0 -10 16 -10q37 0 139 66.5t199 165.5v-17 q-99 -99 -197.5 -164t-144.5 -65q-35 0 -35 35q0 33 30.5 83t94.5 128l19 22l-37 -33q-121 -108 -208.5 -171.5t-137.5 -63.5q-37 0 -37 43zM314 643q0 24 15 44t32 20q33 0 33 -41q0 -26 -13.5 -45t-34.5 -19q-14 0 -23 12t-9 29zM473 643q0 24 16 44t32 20q32 0 32 -41 q0 -25 -13.5 -44.5t-33.5 -19.5q-14 0 -23.5 11.5t-9.5 29.5z" />
<glyph unicode="&#xfd;" horiz-adv-x="662" d="M-375 -438q0 42 56.5 105.5t175.5 141t303 162.5q98 126 254 297q-106 -82 -140 -108t-81 -58.5t-83.5 -48.5t-64.5 -16q-17 0 -28 11t-11 30q0 33 13 63t41.5 60.5t76.5 66.5q86 64 86 99q0 18 -20 18q-34 0 -88 -41t-127 -102v16q80 69 131.5 105t89.5 36q31 0 31 -41 q0 -87 -119 -192q-86 -76 -86 -100q0 -15 18 -15q37 0 128.5 61.5t190 143t152.5 135.5h76l-321 -366q112 45 192.5 98.5t202.5 159.5v-17q-114 -105 -200 -161t-218 -105l-18 -20q-209 -234 -338 -355t-213 -121q-62 0 -62 58zM-360 -440q0 -18 12.5 -29.5t30.5 -11.5 q35 0 79 24.5t98.5 76.5t127.5 138q39 48 84.5 103.5t68.5 89.5q-210 -105 -355.5 -212t-145.5 -179zM400 602q108 75 170 180h108q-80 -86 -252 -180h-26z" />
<glyph unicode="&#xfe;" horiz-adv-x="598" d="M-510 -403l868 1001q-66 -65 -95 -93t-120 -118q-91 -91 -155 -145v16q22 22 70.5 68t82.5 80q66 63 207 204q38 37 86 85t104 104.5t105 105.5h80l-653 -729q89 71 144 112.5t116 76t102 34.5q37 0 37 -51q0 -44 -29.5 -85.5t-97.5 -94.5q-88 -68 -88 -94q0 -23 29 -23 q40 0 91 33t104 79.5t130 119.5v-17q-114 -114 -190 -171.5t-137 -57.5q-48 3 -48 47q0 69 127 184q82 74 82 97q0 20 -20 20q-28 0 -121 -59.5t-189 -137.5t-132 -120l-402 -471h-88z" />
<glyph unicode="&#xff;" horiz-adv-x="662" d="M-375 -438q0 42 56.5 105.5t175.5 141t303 162.5q98 126 254 297q-106 -82 -140 -108t-81 -58.5t-83.5 -48.5t-64.5 -16q-17 0 -28 11t-11 30q0 33 13 63t41.5 60.5t76.5 66.5q86 64 86 99q0 18 -20 18q-34 0 -88 -41t-127 -102v16q80 69 131.5 105t89.5 36q31 0 31 -41 q0 -87 -119 -192q-86 -76 -86 -100q0 -15 18 -15q37 0 128.5 61.5t190 143t152.5 135.5h76l-321 -366q112 45 192.5 98.5t202.5 159.5v-17q-114 -105 -200 -161t-218 -105l-18 -20q-209 -234 -338 -355t-213 -121q-62 0 -62 58zM-360 -440q0 -18 12.5 -29.5t30.5 -11.5 q35 0 79 24.5t98.5 76.5t127.5 138q39 48 84.5 103.5t68.5 89.5q-210 -105 -355.5 -212t-145.5 -179zM365 643q0 24 15 44t32 20q33 0 33 -41q0 -26 -13.5 -45t-34.5 -19q-14 0 -23 12t-9 29zM524 643q0 24 16 44t32 20q32 0 32 -41q0 -25 -13.5 -44.5t-33.5 -19.5 q-14 0 -23.5 11.5t-9.5 29.5z" />
<glyph unicode="&#x152;" horiz-adv-x="1556" d="M57 172q0 95 42.5 191t133.5 208q98 118 242 245.5t320 220.5t340 93q69 0 109.5 -20t57.5 -51.5t17 -65.5q0 -71 -47 -114t-129 -56l4 15q74 13 115 54.5t41 96.5q0 57 -39.5 92t-128.5 35q-74 0 -149 -19t-156 -60t-158 -98t-156 -136q-39 -39 -107 -119.5 t-138.5 -180.5t-122.5 -205.5t-52 -180.5q0 -56 34.5 -87.5t100.5 -31.5q109 0 236.5 80t242 199t196.5 239.5t104 192.5q-65 25 -94 68t-29 93q0 74 63 74q50 0 73.5 -41t23.5 -96q-4 -49 -15 -90q93 -19 154 -21q72 3 123 11q0 97 54 177.5t133 134t162 82.5t130 29 q41 0 64.5 -20.5t23.5 -52.5q0 -44 -39.5 -97.5t-112.5 -106t-172.5 -95t-216.5 -64.5l2 -26q55 7 101.5 -7t46.5 -67q0 -26 -17 -41.5t-45 -15.5q-76 0 -106 110q-98 -16 -164 -49t-129 -90q-97 -86 -151 -186t-54 -187q0 -65 49.5 -101t114.5 -36q103 0 190.5 35.5 t150.5 89.5t97.5 112t34.5 101q0 47 -31 75.5t-82 28.5q-106 0 -184.5 -54t-120.5 -115.5t-73 -123.5l-15 -26l-14 6q57 137 136 209.5t148.5 95.5t118.5 23q61 0 96 -30t35 -83q0 -72 -62.5 -157t-172 -143t-242.5 -58q-76 0 -127 24.5t-77.5 73t-26.5 119.5q0 57 22 121 q-175 -188 -304.5 -263t-252.5 -75q-52 0 -90.5 22t-59 64.5t-20.5 101.5zM901 868q0 -93 115 -145q12 32 12 82q0 53 -19 89t-59 36q-22 0 -35.5 -17.5t-13.5 -44.5zM922 496q80 54 135.5 83t111.5 48.5t142 36.5l-2 28q-61 -10 -123 -10q-93 0 -158 20q-33 -95 -106 -206z M1339 649q19 -98 84 -98q47 0 47 45q0 38 -44 49.5t-87 3.5zM1341 715q90 14 182.5 50t171 88t123 106t44.5 102q0 22 -22 38.5t-52 16.5q-61 0 -132.5 -35.5t-138.5 -97t-112.5 -130.5t-63.5 -138z" />
<glyph unicode="&#x153;" horiz-adv-x="725" d="M-74 121q0 66 60 131t144.5 106t148.5 41q45 0 56 -32t-3 -68q50 43 117.5 71.5t136.5 28.5q32 0 50.5 -12.5t18.5 -32.5q0 -51 -77 -93t-226 -42q-76 -87 -76 -133q0 -15 16.5 -25t41.5 -10q52 0 110 21.5t132.5 73.5t160.5 137v-17q-231 -229 -405 -229q-86 0 -86 94 q1 12 2 25t2 24q-131 -143 -244 -143q-80 0 -80 84zM-33 88q0 -37 41 -37q62 0 134.5 56.5t126 129t53.5 103.5q0 17 -9.5 31t-29.5 14q-51 0 -124 -59.5t-132.5 -136t-59.5 -101.5zM371 238q135 0 199.5 38t64.5 78q0 13 -11.5 22t-27.5 9q-90 0 -225 -147z" />
<glyph unicode="&#x178;" horiz-adv-x="918" d="M66 119q0 36 18 57t51 21q37 0 37 -33q0 -31 -33 -31q-25 0 -35 35q-10 -3 -17 -18t-7 -31q0 -54 51 -87.5t127 -33.5q99 0 187.5 44t162 115.5t146.5 164.5t133 170q-113 -127 -220 -179.5t-175 -52.5q-80 0 -80 70q0 58 47 139.5t217 251.5q97 97 137.5 163t40.5 122 q0 50 -40 80t-103 30q-116 0 -222 -54.5t-169.5 -132.5t-63.5 -141q0 -38 25 -59.5t65 -21.5q92 0 176.5 44.5t144 114t74.5 127.5l15 -2q-15 -65 -78 -136.5t-153.5 -117t-180.5 -45.5q-38 0 -70 21.5t-32 72.5q0 77 69 158t176.5 133.5t212.5 52.5q174 0 174 -157 q0 -49 -17.5 -97.5t-55 -101.5t-105.5 -127l-39 -43l-41 -41q-105 -109 -147.5 -161t-42.5 -80q0 -19 16 -33.5t45 -14.5q75 0 160.5 47t159 112t119.5 118l434 481h86l-559 -633q-129 -146 -225 -233t-195.5 -134.5t-208.5 -47.5q-56 0 -100 16.5t-68 47.5t-24 71z M1082 1251q0 24 15 44t32 20q33 0 33 -41q0 -26 -13.5 -45t-34.5 -19q-14 0 -23 12t-9 29zM1241 1251q0 24 16 44t32 20q32 0 32 -41q0 -25 -13.5 -44.5t-33.5 -19.5q-14 0 -23.5 11.5t-9.5 29.5z" />
<glyph unicode="&#x2c6;" horiz-adv-x="682" d="M352 602q210 104 307 182h66q-43 -113 -45 -182h-10q-22 79 -31 141q-74 -60 -260 -141h-27z" />
<glyph unicode="&#x2dc;" horiz-adv-x="682" d="M342 602q45 51 84 74q46 22 92 22q40 0 105 -26q55 -23 86 -23q44 0 92 47h20q-47 -53 -83 -73.5t-85 -20.5q-38 0 -110 27q-47 19 -78 22q-34 0 -49.5 -7.5t-50.5 -41.5h-23z" />
<glyph unicode="&#x2000;" horiz-adv-x="700" />
<glyph unicode="&#x2001;" horiz-adv-x="1401" />
<glyph unicode="&#x2002;" horiz-adv-x="700" />
<glyph unicode="&#x2003;" horiz-adv-x="1401" />
<glyph unicode="&#x2004;" horiz-adv-x="467" />
<glyph unicode="&#x2005;" horiz-adv-x="350" />
<glyph unicode="&#x2006;" horiz-adv-x="233" />
<glyph unicode="&#x2007;" horiz-adv-x="233" />
<glyph unicode="&#x2008;" horiz-adv-x="175" />
<glyph unicode="&#x2009;" horiz-adv-x="280" />
<glyph unicode="&#x200a;" horiz-adv-x="77" />
<glyph unicode="&#x2010;" horiz-adv-x="362" d="M74 207l12 14h186l-12 -14h-186z" />
<glyph unicode="&#x2011;" horiz-adv-x="362" d="M74 207l12 14h186l-12 -14h-186z" />
<glyph unicode="&#x2012;" horiz-adv-x="362" d="M74 207l12 14h186l-12 -14h-186z" />
<glyph unicode="&#x2013;" horiz-adv-x="1024" d="M-12 215v14h1048v-14h-1048z" />
<glyph unicode="&#x2014;" horiz-adv-x="2048" d="M-12 215v14h2072v-14h-2072z" />
<glyph unicode="&#x2018;" horiz-adv-x="338" d="M537 805q0 26 42 52.5t117 62.5l6 -11q-42 -21 -64 -41t-31 -36t-17 -29q-19 -19 -35 -19q-18 0 -18 21z" />
<glyph unicode="&#x2019;" horiz-adv-x="338" d="M537 795q36 19 55.5 34t30 29t16 26t10.5 17q20 19 35 19q9 0 13.5 -6.5t4.5 -14.5q0 -25 -41.5 -51.5t-117.5 -63.5z" />
<glyph unicode="&#x201a;" horiz-adv-x="338" d="M-82 -33q42 21 64 41t35 42.5t14 23.5q18 18 35 18q18 0 18 -20q0 -25 -39.5 -50.5t-120.5 -64.5z" />
<glyph unicode="&#x201c;" horiz-adv-x="469" d="M537 805q0 26 42 52.5t117 62.5l6 -11q-42 -21 -64 -41t-31 -36t-17 -29q-19 -19 -35 -19q-18 0 -18 21zM694 805q0 26 43 53.5t117 61.5l6 -11q-42 -21 -64 -41t-31 -36t-17 -29q-19 -19 -35 -19q-19 0 -19 21z" />
<glyph unicode="&#x201d;" horiz-adv-x="469" d="M537 795q36 19 55.5 34t30 29t16 26t10.5 17q20 19 35 19q9 0 13.5 -6.5t4.5 -14.5q0 -25 -41.5 -51.5t-117.5 -63.5zM694 795q40 20 63.5 41t32.5 36.5t17 28.5q19 19 35 19q9 0 13.5 -6.5t4.5 -14.5q0 -25 -39.5 -50.5t-120.5 -64.5z" />
<glyph unicode="&#x201e;" horiz-adv-x="469" d="M-94 -33q42 21 64 41t31 36.5t17 29.5q19 18 35 18q19 0 19 -20q0 -25 -39.5 -50.5t-120.5 -64.5zM63 -33q40 20 63.5 41t32.5 37t17 29q18 18 35 18q18 0 18 -20q0 -25 -41.5 -51.5t-117.5 -63.5z" />
<glyph unicode="&#x2022;" horiz-adv-x="469" d="M119 575q0 42 21 78t57 57t77 21t77.5 -21t57.5 -57t21 -78q0 -41 -21 -77t-57.5 -57t-77.5 -21t-77 21t-57 57t-21 77z" />
<glyph unicode="&#x2026;" horiz-adv-x="2048" d="M309 63q0 12 11.5 23.5t25.5 11.5q10 0 17.5 -6t7.5 -16q0 -14 -12.5 -25.5t-24.5 -11.5q-25 0 -25 24zM993 61q0 13 11 25t24 12q12 0 19.5 -6t7.5 -16q0 -15 -12 -26t-25 -11q-25 0 -25 22zM1677 63q0 11 11 23t24 12q27 0 27 -24q0 -14 -11.5 -24.5t-25.5 -10.5 q-9 0 -17 7t-8 17z" />
<glyph unicode="&#x202f;" horiz-adv-x="280" />
<glyph unicode="&#x2039;" horiz-adv-x="469" d="M55 268q103 26 183.5 63.5t167.5 100.5l8 -10q-50 -43 -84.5 -66t-84 -49t-102.5 -47q33 -44 33 -104q0 -41 -18 -82l-13 2q5 40 5 37q0 85 -95 155z" />
<glyph unicode="&#x203a;" horiz-adv-x="469" d="M41 82q129 105 272 164q-34 52 -34 100q0 34 18 84l8 -4q-5 -48 11 -94.5t83 -91.5q-95 -25 -177.5 -64t-172.5 -102z" />
<glyph unicode="&#x205f;" horiz-adv-x="350" />
<glyph unicode="&#x20ac;" horiz-adv-x="938" d="M121 809q0 55 40 110t134.5 94.5t206.5 54.5t313 15v-12q-189 0 -293.5 -13.5t-200 -51.5t-138 -88.5t-42.5 -116.5q0 -86 105 -126t254 -40q46 0 63 2q214 191 437 318.5t325 127.5q78 0 78 -71q0 -100 -205 -212t-553 -167l-72 -78h598l-6 -14h-604l-61 -68h630l-6 -14 h-637q-217 -248 -217 -379q0 -57 45.5 -92t118.5 -35q162 0 306.5 116.5t144.5 217.5q0 49 -32 78.5t-85 29.5q-98 0 -201 -78.5t-190 -242.5l-10 8q85 163 194 244.5t207 81.5q56 0 91.5 -33.5t35.5 -85.5q0 -117 -150.5 -232.5t-302.5 -115.5q-93 0 -151 53t-58 139 q0 151 154 326h-199l9 14h202q41 45 64 68h-275l9 14h280l70 68h-31q-197 0 -296 43t-99 143zM659 649q338 57 536 163t198 200q0 27 -19 44t-49 17q-100 0 -298 -122.5t-368 -301.5z" />
<glyph unicode="&#x2122;" horiz-adv-x="1174" d="M18 1018l11 96h385l10 -96h-12q-8 36 -28.5 56t-82.5 20h-41v-316q0 -45 11.5 -61.5t45.5 -16.5v-14h-190v14q32 0 43.5 17.5t11.5 60.5v316h-43q-56 0 -77 -19.5t-29 -56.5h-15zM475 686v14q40 0 51 16t11 62v242q0 48 -9 64t-53 16v14h146l153 -319l148 319h141v-14 q-41 0 -51.5 -15.5t-10.5 -64.5v-242q0 -46 11 -62t51 -16v-14h-205v14q45 0 55.5 17.5t10.5 60.5v289l-176 -381h-11l-178 375v-283q0 -47 12 -62.5t58 -15.5v-14h-154z" />
<glyph unicode="&#x25fc;" horiz-adv-x="400" d="M0 0v400h400v-400h-400z" />
</font>
</defs>
</svg>
